<?xml version="1.0" encoding="UTF-8"?>
<svg width="24px" height="24px" viewBox="0 0 24 24" version="1.1" xmlns="http://www.w3.org/2000/svg" xmlns:xlink="http://www.w3.org/1999/xlink">
    <!-- Generator: Sketch 53.2 (72643) - https://sketchapp.com -->
    <title>ic_3</title>
    <desc>Created with Sketch.</desc>
    <g id="ic_3" stroke="none" stroke-width="1" fill="none" fill-rule="evenodd">
        <path d="M10.4103585,12.9945313 L10.4103585,11.0953125 L11.9572335,11.0953125 C13.1345772,11.0953125 13.933796,10.3992187 13.933796,9.38515625 C13.933796,8.45703125 13.2033272,7.75234375 11.9916085,7.75234375 C10.736921,7.75234375 9.96348347,8.396875 9.87754597,9.50546875 L7.47988972,9.50546875 C7.56582722,7.21953125 9.32754597,5.68125 12.1205147,5.68125 C14.8705147,5.68125 16.4002022,7.20234375 16.3916085,9.015625 C16.3830147,10.5195312 15.4377022,11.5078125 14.105671,11.834375 L14.105671,11.9976563 C15.8330147,12.246875 16.8814522,13.346875 16.8814522,15.0054688 C16.8814522,17.1796875 14.8361397,18.7179688 12.0345772,18.7179688 C9.23301472,18.7179688 7.32520222,17.1882813 7.21348347,14.8421875 L9.69707722,14.8421875 C9.77442097,15.890625 10.668171,16.5609375 12.0002022,16.5609375 C13.315046,16.5609375 14.2345772,15.8476562 14.2345772,14.7734375 C14.2345772,13.6734375 13.3752022,12.9945313 11.9830147,12.9945313 L10.4103585,12.9945313 Z" id="3" fill="#4A4A4A" fill-rule="nonzero"></path>
    </g>
</svg>