<?xml version="1.0" encoding="UTF-8"?>
<svg width="24px" height="24px" viewBox="0 0 24 24" version="1.1" xmlns="http://www.w3.org/2000/svg" xmlns:xlink="http://www.w3.org/1999/xlink">
    <!-- Generator: Sketch 53.2 (72643) - https://sketchapp.com -->
    <title>ic:ankomst</title>
    <desc>Created with Sketch.</desc>
    <g id="ic:ankomst" stroke="none" stroke-width="1" fill="none" fill-rule="evenodd">
        <polygon id="Shape" fill="#4A4A4A" fill-rule="nonzero" points="6.96979167 6.71052632 5.66491667 7.92832536 8.49558333 10.5878469 1 10.5878469 1 12.30689 8.49558333 12.30689 5.66491667 14.9664115 6.96979167 16.1842105 12 11.4473684"></polygon>
        <path d="M2,16.6775862 L4.03955537,16.6775862 L4.18955537,16.8275862 L4.18955537,18.2758621 C4.18955537,19.2975889 5.01782858,20.1258621 6.03955537,20.1258621 L18.0160725,20.1258621 C19.0377992,20.1258621 19.8660725,19.2975889 19.8660725,18.2758621 L19.8660725,6.06896552 C19.8660725,5.04723873 19.0377992,4.21896552 18.0160725,4.21896552 L6.03955537,4.21896552 C5.01782858,4.21896552 4.18955537,5.04723873 4.18955537,6.06896552 L4.18955537,6.48275862 L4.03955537,6.63275862 L2,6.63275862 L1.85,6.48275862 L1.85,6 C1.85,3.70801829 3.70801829,1.85 6,1.85 L18.0556278,1.85 C20.3476095,1.85 22.2056278,3.70801829 22.2056278,6 L22.2056278,18 C22.2056278,20.2919817 20.3476095,22.15 18.0556278,22.15 L6,22.15 C3.70801829,22.15 1.85,20.2919817 1.85,18 L1.85,16.8275862 L2,16.6775862 Z" id="Combined-Shape" fill="#4A4A4A" fill-rule="nonzero"></path>
    </g>
</svg>