<?xml version="1.0" encoding="UTF-8"?>
<svg width="24px" height="24px" viewBox="0 0 24 24" version="1.1" xmlns="http://www.w3.org/2000/svg" xmlns:xlink="http://www.w3.org/1999/xlink">
    <!-- Generator: Sketch 53.2 (72643) - https://sketchapp.com -->
    <title>ic_avreise</title>
    <desc>Created with Sketch.</desc>
    <g id="ic_avreise" stroke="none" stroke-width="1" fill="none" fill-rule="evenodd">
        <polygon id="Shape" fill="#4A4A4A" fill-rule="nonzero" points="17.1864035 6.44444444 15.9377193 7.72989899 18.6464912 10.5371717 11.4736842 10.5371717 11.4736842 12.3517172 18.6464912 12.3517172 15.9377193 15.1589899 17.1864035 16.4444444 22 11.4444444"></polygon>
        <path d="M20.9473684,6.63275862 L19.0205174,6.63275862 L18.8705174,6.48275862 L18.8705174,6.06896552 C18.8705174,5.04723873 18.0422442,4.21896552 17.0205174,4.21896552 L5.92685103,4.21896552 C4.90512424,4.21896552 4.07685103,5.04723873 4.07685103,6.06896552 L4.07685103,18.2758621 C4.07685103,19.2975889 4.90512424,20.1258621 5.92685103,20.1258621 L17.0205174,20.1258621 C18.0422442,20.1258621 18.8705174,19.2975889 18.8705174,18.2758621 L18.8705174,16.8275862 L19.0205174,16.6775862 L20.9473684,16.6775862 L21.0973684,16.8275862 L21.0973684,18 C21.0973684,20.2919817 19.2393501,22.15 16.9473684,22.15 L6,22.15 C3.70801829,22.15 1.85,20.2919817 1.85,18 L1.85,6 C1.85,3.70801829 3.70801829,1.85 6,1.85 L16.9473684,1.85 C19.2393501,1.85 21.0973684,3.70801829 21.0973684,6 L21.0973684,6.48275862 L20.9473684,6.63275862 Z" id="Combined-Shape" fill="#4A4A4A" fill-rule="nonzero"></path>
    </g>
</svg>