<?xml version="1.0" encoding="UTF-8"?>
<svg width="63px" height="63px" viewBox="0 0 63 63" version="1.1" xmlns="http://www.w3.org/2000/svg" xmlns:xlink="http://www.w3.org/1999/xlink">
    <!-- Generator: Sketch 52.1 (67048) - http://www.bohemiancoding.com/sketch -->
    <title>ic_btn_set_position</title>
    <desc>Created with Sketch.</desc>
    <g id="ic_btn_set_position" stroke="none" stroke-width="1" fill="none" fill-rule="evenodd">
        <g id="Group-2" transform="translate(0.500000, 0.500000)">
            <ellipse id="Oval" stroke="#002D73" cx="31" cy="31.0078125" rx="31" ry="30.5"></ellipse>
            <g id="ic_e_posisjon" transform="translate(21.344262, 15.507812)" fill="#002D73" fill-rule="nonzero">
                <path d="M9.6557377,2 C14.3580754,2 18.4836557,5.85627472 18.4836557,10.251662 C18.4836557,14.8076045 14.8156558,20.756991 9.6557377,28.901125 C4.49581964,20.756991 0.827819707,14.8076045 0.827819707,10.251662 C0.827819707,5.85627472 4.95340005,2 9.6557377,2 Z M9.6557377,0.9505625 C4.58888934,0.9505625 0,5.2043125 0,10.4530625 C0,15.7005625 4.18696926,21.9655625 9.6557377,30.9505625 C15.1245061,21.9655625 19.3114754,15.7005625 19.3114754,10.4530625 C19.3114754,5.2043125 14.723793,0.9505625 9.6557377,0.9505625 Z M9.6557377,14.2916667 C7.65579303,14.2916667 6.03483607,12.668875 6.03483607,10.6666667 C6.03483607,8.66445833 7.65579303,7.04166667 9.6557377,7.04166667 C11.6556824,7.04166667 13.2766393,8.66445833 13.2766393,10.6666667 C13.2766393,12.668875 11.6556824,14.2916667 9.6557377,14.2916667 Z M9.6557377,13.5495181 C11.2301302,13.5495181 12.5061767,12.2720272 12.5061767,10.6958528 C12.5061767,9.11967832 11.2301302,7.8421875 9.6557377,7.8421875 C8.08134524,7.8421875 6.80529873,9.11967832 6.80529873,10.6958528 C6.80529873,12.2720272 8.08134524,13.5495181 9.6557377,13.5495181 Z" id="Shape"></path>
            </g>
        </g>
    </g>
</svg>