<?xml version="1.0" encoding="UTF-8"?>
<svg width="24px" height="24px" viewBox="0 0 24 24" version="1.1" xmlns="http://www.w3.org/2000/svg" xmlns:xlink="http://www.w3.org/1999/xlink">
    <!-- Generator: Sketch 53.2 (72643) - https://sketchapp.com -->
    <title>ic_brann</title>
    <desc>Created with Sketch.</desc>
    <g id="ic_brann" stroke="none" stroke-width="1" fill="none" fill-rule="evenodd">
        <path d="M18.8625,24 L5.7375,24 L5.7375,22 L18.8625,22 L18.8625,24 Z M10.7765625,4.287 C12.061875,6.625 12.0946875,10.937 11.0990625,12.734 C13.5009375,12.422 15.894375,9.896 16.4184375,8.201 C17.39625,9.64 17.925,11.345 17.925,13.167 C17.925,14.721 17.116875,17.128 14.9071875,18.329 C14.701875,16.938 13.8525,15.423 12.4340625,14.563 C11.0840625,15.407 10.093125,17.251 9.8240625,18.501 C8.6671875,17.953 6.675,16.281 6.675,14 C6.675,10.719 9.2146875,9.415 10.7765625,4.287 Z M9.4875,2.66453526e-15 C9.995625,6.292 4.8,8.458 4.8,14 C4.8,17.764 8.071875,20.42 11.3625,21.005 C11.20125,19.547 11.6409375,18.141 12.455625,17.313 C13.2525,18.079 13.618125,19.782 13.2375,21.001 C16.86375,20.251 19.8,17.143 19.8,13.168 C19.8,9.542 18.0815625,6.125 14.8396875,4 C15.4059375,6.312 14.67375,7.906 13.648125,8.896 C13.7071875,5.974 12.5634375,2.062 9.4875,2.66453526e-15 Z" id="Shape" fill="#4A4A4A" fill-rule="nonzero"></path>
    </g>
</svg>