<?xml version="1.0" encoding="UTF-8"?>
<svg width="63px" height="63px" viewBox="0 0 63 63" version="1.1" xmlns="http://www.w3.org/2000/svg" xmlns:xlink="http://www.w3.org/1999/xlink">
    <!-- Generator: Sketch 52.1 (67048) - http://www.bohemiancoding.com/sketch -->
    <title>ic_btn_traffic_down</title>
    <desc>Created with Sketch.</desc>
    <g id="ic_btn_traffic_down" stroke="none" stroke-width="1" fill="none" fill-rule="evenodd">
        <g id="Group-4" transform="translate(0.500000, 0.500000)" stroke="#002D73">
            <circle id="Oval-Copy-2" fill-opacity="0.05" fill="#002D73" cx="31.2685547" cy="31.0078125" r="30.5"></circle>
            <g id="Group-7-Copy" transform="translate(18.768555, 20.224609)">
                <path d="M25.4075425,5.1001353 L25.4075425,17.5563044 C25.4075425,18.9877038 24.2472108,20.1480356 22.8158113,20.1480356 L2.59173117,20.1480356 C1.16033172,20.1480356 0,18.9877038 0,17.5563044 L0,5.1001353 C0,3.66873585 1.16033172,2.50840414 2.59173117,2.50840414 L7.3706148,2.50840414 C7.59005828,2.50840414 7.76791108,2.33055134 7.76791108,2.11110785 C7.76791108,0.945112031 8.71300693,1.61831481e-05 9.87900275,1.61831481e-05 L15.6094555,1.61831481e-05 C16.7752895,1.61831481e-05 17.7205472,0.945112031 17.7205472,2.11110785 C17.7205472,2.33055134 17.8985618,2.50840414 18.1178434,2.50840414 L22.8158113,2.50840414 C24.2472108,2.50840414 25.4075425,3.66873585 25.4075425,5.1001353 Z" id="Stroke-1"></path>
                <path d="M19.015199,4.77402869 L22.1709129,4.77402869" id="Stroke-3" stroke-linecap="round"></path>
                <path d="M18.1386719,11.0045407 C18.1386719,13.9128736 15.7807087,16.2708368 12.8723757,16.2708368 C9.96387561,16.2708368 7.6060796,13.9128736 7.6060796,11.0045407 C7.6060796,8.09604058 9.96387561,5.73824456 12.8723757,5.73824456 C15.7807087,5.73824456 18.1386719,8.09604058 18.1386719,11.0045407 Z" id="Stroke-5"></path>
            </g>
        </g>
    </g>
</svg>