<?xml version="1.0" encoding="UTF-8"?>
<svg width="63px" height="63px" viewBox="0 0 63 63" version="1.1" xmlns="http://www.w3.org/2000/svg" xmlns:xlink="http://www.w3.org/1999/xlink">
    <!-- Generator: Sketch 52.1 (67048) - http://www.bohemiancoding.com/sketch -->
    <title>ic_btn_directions</title>
    <desc>Created with Sketch.</desc>
    <g id="ic_btn_directions" stroke="none" stroke-width="1" fill="none" fill-rule="evenodd">
        <g id="Group" transform="translate(0.500000, 0.500000)">
            <ellipse id="Oval-Copy" stroke="#002D73" cx="31" cy="30.9912109" rx="31" ry="30.5"></ellipse>
            <path d="M31,18.4912109 C23.9830185,18.4912109 18.295082,24.0879501 18.295082,30.9912109 C18.295082,37.8944718 23.9830185,43.4912109 31,43.4912109 C38.0169815,43.4912109 43.704918,37.8944718 43.704918,30.9912109 C43.704918,24.0879501 38.0169815,18.4912109 31,18.4912109 L31,18.4912109 Z M30.4476123,31.5346892 L30.4476123,36.5493631 C28.9489843,36.5825153 27.5011761,36.7433849 26.1301497,37.0232762 C25.6307912,35.3982762 25.3175873,33.5249066 25.2689772,31.5346892 L30.4476123,31.5346892 L30.4476123,31.5346892 Z M25.2689772,30.4477327 C25.3175873,28.4575153 25.6302388,26.5846892 26.1301497,24.9591457 C27.5011761,25.239037 28.9489843,25.4004501 30.4476123,25.4330588 L30.4476123,30.4477327 L25.2689772,30.4477327 L25.2689772,30.4477327 Z M31.5523877,31.5292544 L36.7310228,31.5292544 C36.6824127,33.5194718 36.3697612,35.3977327 35.8698503,37.0227327 C34.4988239,36.7428414 33.0510157,36.5814283 31.5523877,36.5488196 L31.5523877,31.5292544 L31.5523877,31.5292544 Z M31.5523877,30.4477327 L31.5523877,25.4330588 C33.0510157,25.3999066 34.4988239,25.239037 35.8698503,24.9591457 C36.3692088,26.5841457 36.6824127,28.4575153 36.7310228,30.4477327 L31.5523877,30.4477327 L31.5523877,30.4477327 Z M36.7221846,24.7645805 C37.9285994,24.4694718 39.0665182,24.0852327 40.120474,23.6232762 C41.6870456,25.4982762 42.6708482,27.8624066 42.7929259,30.4477327 L37.613186,30.4477327 C37.5662331,28.3759935 37.2403243,26.452624 36.7221846,24.7645805 L36.7221846,24.7645805 Z M39.5067712,22.9450153 C38.5561119,23.3412109 37.5314326,23.664037 36.4526194,23.9227327 C35.7963828,22.1254501 34.9009622,20.664037 33.8459016,19.7156675 C36.0394334,20.2520805 37.9899145,21.3928414 39.5067712,22.9450153 L39.5067712,22.9450153 Z M35.5914469,24.1314283 C34.3088026,24.3846892 32.9515859,24.5194718 31.5523877,24.5509935 L31.5523877,19.4200153 C33.1880078,19.752624 34.64134,21.5520805 35.5914469,24.1314283 L35.5914469,24.1314283 Z M30.4476123,19.4200153 L30.4476123,24.5509935 C29.0484141,24.5189283 27.6911974,24.3841457 26.4080007,24.1314283 C27.35866,21.5520805 28.8119922,19.752624 30.4476123,19.4200153 L30.4476123,19.4200153 Z M28.1540984,19.7156675 C27.0990378,20.664037 26.2036172,22.1259935 25.5473806,23.9227327 C24.4685674,23.664037 23.4433357,23.3412109 22.4932288,22.9450153 C24.0100855,21.3928414 25.9605666,20.2520805 28.1540984,19.7156675 L28.1540984,19.7156675 Z M21.8789736,23.6232762 C22.9329294,24.0852327 24.0714006,24.4694718 25.277263,24.7645805 C24.7591233,26.452624 24.4337669,28.376537 24.3862616,30.4477327 L19.2065217,30.4477327 C19.3285994,27.8624066 20.312402,25.4988196 21.8789736,23.6232762 L21.8789736,23.6232762 Z M24.3862616,31.5346892 C24.4337669,33.6064283 24.7596757,35.5297979 25.277263,37.2189283 C24.0708482,37.514037 22.9329294,37.8971892 21.8789736,38.3591457 C20.312402,36.4841457 19.3285994,34.1200153 19.2065217,31.5346892 L24.3862616,31.5346892 L24.3862616,31.5346892 Z M22.4932288,39.0374066 C23.4438881,38.6412109 24.4685674,38.3183849 25.5473806,38.0596892 C26.2036172,39.8569718 27.0990378,41.3183849 28.1540984,42.2667544 C25.9605666,41.7303414 24.0100855,40.5895805 22.4932288,39.0374066 L22.4932288,39.0374066 Z M26.4080007,37.8509935 C27.690645,37.5977327 29.0478617,37.4629501 30.4476123,37.4314283 L30.4476123,42.5634935 C28.8119922,42.2297979 27.35866,40.4303414 26.4080007,37.8509935 L26.4080007,37.8509935 Z M31.5523877,42.5634935 L31.5523877,37.4314283 C32.9515859,37.4634935 34.3088026,37.5982762 35.5914469,37.8509935 C34.64134,40.4303414 33.1880078,42.2297979 31.5523877,42.5634935 L31.5523877,42.5634935 Z M33.8459016,42.2667544 C34.9009622,41.3183849 35.7963828,39.8564283 36.4526194,38.0596892 C37.5314326,38.3183849 38.5566643,38.6412109 39.5067712,39.0374066 C37.9899145,40.5895805 36.0394334,41.7303414 33.8459016,42.2667544 L33.8459016,42.2667544 Z M40.1210264,38.3591457 C39.0670706,37.8971892 37.9285994,37.514037 36.722737,37.2189283 C37.2408767,35.5297979 37.5662331,33.6009935 37.6137384,31.5292544 L42.7934783,31.5292544 C42.6714006,34.1145805 41.687598,36.4836022 40.1210264,38.3591457 L40.1210264,38.3591457 Z" id="World-Icon" fill="#002D73"></path>
        </g>
    </g>
</svg>