<?xml version="1.0" encoding="UTF-8"?>
<svg width="24px" height="24px" viewBox="0 0 24 24" version="1.1" xmlns="http://www.w3.org/2000/svg" xmlns:xlink="http://www.w3.org/1999/xlink">
    <!-- Generator: Sketch 53.2 (72643) - https://sketchapp.com -->
    <title>ic_evakuering</title>
    <desc>Created with Sketch.</desc>
    <g id="ic_evakuering" stroke="none" stroke-width="1" fill="none" fill-rule="evenodd">
        <path d="M7.656,13.575 C7.3576,13.575 7.0632,13.52 6.7816,13.4125 L7.1072,12.4916667 C7.284,12.5591667 7.468,12.5933333 7.656,12.5933333 C7.864,12.5933333 8.0672,12.5516667 8.2592,12.47 L8.6168,13.3783333 C8.3112,13.5091667 7.988,13.575 7.656,13.575 Z M14.592,12.9225 L13.2648,12.135 L13.7312,11.2816667 L15.0592,12.0691667 L14.592,12.9225 L14.592,12.9225 Z M9.428,12.9058333 L8.944,12.0633333 L10.2552,11.2458333 L10.7392,12.0883333 L9.428,12.9058333 Z M12.5624,11.7325 C12.368,11.6483333 12.1624,11.605 11.9512,11.605 C11.7672,11.605 11.5856,11.6383333 11.412,11.7041667 L11.0912,10.7808333 C11.368,10.6766667 11.6576,10.6241667 11.9512,10.6233333 C12.2872,10.6233333 12.6152,10.6916667 12.9248,10.8266667 L12.5624,11.7325 L12.5624,11.7325 Z M5.5752,11.5966667 C5.1472,11.5966667 4.8,11.9575 4.8,12.4033333 C4.8,12.8491667 5.1472,13.21 5.5752,13.21 C6.0032,13.21 6.3504,12.8483333 6.3504,12.4033333 C6.3496,11.9575 6.0032,11.5966667 5.5752,11.5966667 L5.5752,11.5966667 Z M16.436,5.73333333 L12,2.4 L7.564,5.73333333 L2.4,2.4 L2.4,19.0666667 L7.564,22.4 L12,19.0666667 L16.436,22.4 L21.6,19.0666667 L21.6,2.4 L16.436,5.73333333 Z M20,18.1391667 L16.8,20.205 L16.8,16.5666667 L16,16.5666667 L16,20.0175 L12.8,17.6133333 L12.8,14.0666667 L11.2,14.0666667 L11.2,17.6125 L8,20.0166667 L8,15.7333333 L7.2,15.7333333 L7.2,20.2041667 L4,18.1383333 L4,5.39333333 L7.2,7.45916667 L7.2,9.9 L8,9.9 L8,7.46083333 L11.2,5.05583333 L11.2,8.23333333 L12.8,8.23333333 L12.8,5.05583333 L16,7.46083333 L16,9.06666667 L16.8,9.06666667 L16.8,7.45916667 L20,5.39333333 L20,18.1391667 Z M18.9376,14.08 L17.9008,13.0183333 L18.9192,11.9408333 L18.3528,11.3558333 L17.3352,12.435 L16.3,11.375 L15.7376,11.96 L16.7744,13.0233333 L15.756,14.1033333 L16.3184,14.6891667 L17.34,13.6075 L18.376,14.67 L18.9376,14.08 L18.9376,14.08 Z" id="Shape" fill="#4A4A4A" fill-rule="nonzero"></path>
    </g>
</svg>