<?xml version="1.0" encoding="UTF-8"?>
<svg width="29px" height="30px" viewBox="0 0 29 30" version="1.1" xmlns="http://www.w3.org/2000/svg" xmlns:xlink="http://www.w3.org/1999/xlink">
    <!-- Generator: Sketch 52.1 (67048) - http://www.bohemiancoding.com/sketch -->
    <title>ic_e_oppmotested</title>
    <desc>Created with Sketch.</desc>
    <g id="Page-1" stroke="none" stroke-width="1" fill="none" fill-rule="evenodd" opacity="0.668712798">
        <g id="Hovedskjerm-Copy-37" transform="translate(-10.000000, -640.000000)" fill="#4A4A4A" fill-rule="nonzero">
            <g id="ic_e_oppmotested" transform="translate(10.000000, 640.000000)">
                <g id="iconmonstr-arrow-20" transform="translate(0.000000, 10.333333)">
                    <polygon id="Shape" points="4.884375 0 3.81675 1.19547273 6.13275 3.80623636 0 3.80623636 0 5.49376364 6.13275 5.49376364 3.81675 8.10452727 4.884375 9.3 9 4.65"></polygon>
                </g>
                <g id="iconmonstr-arrow-20" transform="translate(14.150000, 4.650000) rotate(90.000000) translate(-14.150000, -4.650000) translate(9.650000, -0.350000)">
                    <polygon id="Shape" points="4.884375 0 3.81675 1.19547273 6.13275 3.80623636 0 3.80623636 0 5.49376364 6.13275 5.49376364 3.81675 8.10452727 4.884375 9.3 9 4.65"></polygon>
                </g>
                <g id="iconmonstr-arrow-20" transform="translate(24.500000, 14.633333) rotate(180.000000) translate(-24.500000, -14.633333) translate(20.000000, 9.633333)">
                    <polygon id="Shape" points="4.884375 0 3.81675 1.19547273 6.13275 3.80623636 0 3.80623636 0 5.49376364 6.13275 5.49376364 3.81675 8.10452727 4.884375 9.3 9 4.65"></polygon>
                </g>
                <g id="iconmonstr-arrow-20" transform="translate(14.927797, 25.391004) rotate(-91.000000) translate(-14.927797, -25.391004) translate(10.427797, 20.391004)">
                    <polygon id="Shape" points="4.884375 0 3.81675 1.19547273 6.13275 3.80623636 0 3.80623636 0 5.49376364 6.13275 5.49376364 3.81675 8.10452727 4.884375 9.3 9 4.65"></polygon>
                </g>
                <g id="iconmonstr-circle-2" transform="translate(10.000000, 10.333333)">
                    <path d="M4.5,1.55 C6.1542,1.55 7.5,2.94066 7.5,4.65 C7.5,6.35934 6.1542,7.75 4.5,7.75 C2.8458,7.75 1.5,6.35934 1.5,4.65 C1.5,2.94066 2.8458,1.55 4.5,1.55 Z M4.5,0 C2.014875,0 0,2.0820375 0,4.65 C0,7.2179625 2.014875,9.3 4.5,9.3 C6.985125,9.3 9,7.2179625 9,4.65 C9,2.0820375 6.985125,0 4.5,0 Z" id="Shape"></path>
                </g>
            </g>
        </g>
    </g>
</svg>