<?xml version="1.0" encoding="UTF-8"?>
<svg width="20px" height="20px" viewBox="0 0 20 20" version="1.1" xmlns="http://www.w3.org/2000/svg" xmlns:xlink="http://www.w3.org/1999/xlink">
    <!-- Generator: Sketch 52.1 (67048) - http://www.bohemiancoding.com/sketch -->
    <title>ic_e_avreise</title>
    <desc>Created with Sketch.</desc>
    <g id="Page-1" stroke="none" stroke-width="1" fill="none" fill-rule="evenodd" opacity="0.668712798">
        <g id="Hovedskjerm-Copy-37" transform="translate(-15.000000, -724.000000)" fill="#4A4A4A">
            <g id="ic_e_avreise" transform="translate(15.000000, 724.000000)">
                <g id="iconmonstr-arrow-20-(1)" transform="translate(9.473684, 4.444444)" fill-rule="nonzero">
                    <polygon id="Shape" points="5.7127193 0 4.46403509 1.28545455 7.17280702 4.09272727 0 4.09272727 0 5.90727273 7.17280702 5.90727273 4.46403509 8.71454545 5.7127193 10 10.5263158 5"></polygon>
                </g>
                <path d="M18.9473684,4.48275862 L17.0205174,4.48275862 L17.0205174,4.06896552 C17.0205174,2.96439602 16.1250869,2.06896552 15.0205174,2.06896552 L3.92685103,2.06896552 C2.82228153,2.06896552 1.92685103,2.96439602 1.92685103,4.06896552 L1.92685103,16.2758621 C1.92685103,17.3804316 2.82228153,18.2758621 3.92685103,18.2758621 L15.0205174,18.2758621 C16.1250869,18.2758621 17.0205174,17.3804316 17.0205174,16.2758621 L17.0205174,14.8275862 L18.9473684,14.8275862 L18.9473684,16 C18.9473684,18.209139 17.1565074,20 14.9473684,20 L4,20 C1.790861,20 -1.50581534e-15,18.209139 -1.77635684e-15,16 L-1.77635684e-15,4 C-2.04689834e-15,1.790861 1.790861,4.05812251e-16 4,0 L14.9473684,0 C17.1565074,-4.05812251e-16 18.9473684,1.790861 18.9473684,4 L18.9473684,4.48275862 Z" id="Combined-Shape"></path>
            </g>
        </g>
    </g>
</svg>