<?xml version="1.0" encoding="UTF-8"?>
<svg width="21px" height="20px" viewBox="0 0 21 20" version="1.1" xmlns="http://www.w3.org/2000/svg" xmlns:xlink="http://www.w3.org/1999/xlink">
    <!-- Generator: Sketch 52.1 (67048) - http://www.bohemiancoding.com/sketch -->
    <title>ic_e_ankomst</title>
    <desc>Created with Sketch.</desc>
    <g id="Page-1" stroke="none" stroke-width="1" fill="none" fill-rule="evenodd">
        <g id="Hovedskjerm-Copy-37" transform="translate(-14.000000, -684.000000)">
            <rect fill="#F8F5F3" x="0" y="0" width="375" height="2033"></rect>
            <g id="ic_e_ankomst" opacity="0.668712798" transform="translate(14.000000, 684.000000)" fill="#4A4A4A">
                <g id="iconmonstr-arrow-20-(1)" transform="translate(1.000000, 4.210526)" fill-rule="nonzero">
                    <polygon id="Shape" points="5.96979167 0 4.66491667 1.21779904 7.49558333 3.87732057 0 3.87732057 0 5.59636364 7.49558333 5.59636364 4.66491667 8.25588517 5.96979167 9.47368421 11 4.73684211"></polygon>
                </g>
                <path d="M0.944372176,14.8275862 L2.98392755,14.8275862 L2.98392755,16.2758621 C2.98392755,17.3804316 3.87935805,18.2758621 4.98392755,18.2758621 L16.9604446,18.2758621 C18.0650141,18.2758621 18.9604446,17.3804316 18.9604446,16.2758621 L18.9604446,4.06896552 C18.9604446,2.96439602 18.0650141,2.06896552 16.9604446,2.06896552 L4.98392755,2.06896552 C3.87935805,2.06896552 2.98392755,2.96439602 2.98392755,4.06896552 L2.98392755,4.48275862 L0.944372176,4.48275862 L0.944372176,4 C0.944372176,1.790861 2.73523318,4.05812251e-16 4.94437218,0 L17,0 C19.209139,-4.05812251e-16 21,1.790861 21,4 L21,16 C21,18.209139 19.209139,20 17,20 L4.94437218,20 C2.73523318,20 0.944372176,18.209139 0.944372176,16 L0.944372176,14.8275862 Z" id="Combined-Shape"></path>
            </g>
        </g>
    </g>
</svg>