<?xml version="1.0" encoding="UTF-8"?>
<svg width="25px" height="27px" viewBox="0 0 25 27" version="1.1" xmlns="http://www.w3.org/2000/svg" xmlns:xlink="http://www.w3.org/1999/xlink">
    <!-- Generator: Sketch 52.1 (67048) - http://www.bohemiancoding.com/sketch -->
    <title>ic_e_rett</title>
    <desc>Created with Sketch.</desc>
    <g id="Page-1" stroke="none" stroke-width="1" fill="none" fill-rule="evenodd" opacity="0.667015439">
        <g id="Hovedskjerm-Copy-37" transform="translate(-13.000000, -1808.000000)" fill="#4A4A4A">
            <g id="ic_e_rett" transform="translate(13.000000, 1808.859375)">
                <path d="M19.7916667,23.8333333 L21.875,23.8333333 L21.875,10.9080833 C20.6666667,10.0923333 19.2552083,9.27333333 17.9010417,8.68508333 C18.24375,8.09575 18.4989583,7.397 18.6270833,6.65166667 C20.5239583,7.46416667 22.271875,8.55075 23.9583333,9.75 L23.9583333,23.8333333 L25,23.8333333 L25,26 L0,26 L0,23.8333333 L1.04166667,23.8333333 L1.04166667,9.75 C2.72395833,8.57566667 4.47708333,7.49666667 6.37708333,6.68416667 C6.51979167,7.4035 6.78020833,8.08491667 7.13541667,8.70241667 C5.71875,9.31233333 4.4125,10.075 3.13645833,10.9124167 L3.125,10.92 L3.125,23.8333333 L5.20833333,23.8333333 L5.20833333,18.4166667 L19.7916667,18.4166667 L19.7916667,23.8333333 Z M7.29166667,24.9166667 L10.4166667,24.9166667 L10.4166667,20.5833333 L7.29166667,20.5833333 L7.29166667,24.9166667 Z M11.4583333,24.9166667 L13.5416667,24.9166667 L13.5416667,20.5833333 L11.4583333,20.5833333 L11.4583333,24.9166667 Z M14.5833333,24.9166667 L17.7083333,24.9166667 L17.7083333,20.5833333 L14.5833333,20.5833333 L14.5833333,24.9166667 Z M5.20833333,17.3333333 L7.29166667,17.3333333 L7.29166667,15.1666667 L5.20833333,15.1666667 L5.20833333,17.3333333 Z M9.375,17.3333333 L11.4583333,17.3333333 L11.4583333,15.1666667 L9.375,15.1666667 L9.375,17.3333333 Z M13.5416667,17.3333333 L15.625,17.3333333 L15.625,15.1666667 L13.5416667,15.1666667 L13.5416667,17.3333333 Z M17.7083333,17.3333333 L19.7916667,17.3333333 L19.7916667,15.1666667 L17.7083333,15.1666667 L17.7083333,17.3333333 Z M5.20833333,14.0833333 L7.29166667,14.0833333 L7.29166667,11.9166667 L5.20833333,11.9166667 L5.20833333,14.0833333 Z M9.375,14.0833333 L11.4583333,14.0833333 L11.4583333,11.9166667 L9.375,11.9166667 L9.375,14.0833333 Z M13.5416667,14.0833333 L15.625,14.0833333 L15.625,11.9166667 L13.5416667,11.9166667 L13.5416667,14.0833333 Z M17.7083333,14.0833333 L19.7916667,14.0833333 L19.7916667,11.9166667 L17.7083333,11.9166667 L17.7083333,14.0833333 Z M12.5,0 C15.375,0 17.7083333,2.42666667 17.7083333,5.41666667 C17.7083333,8.40666667 15.375,10.8333333 12.5,10.8333333 C9.625,10.8333333 7.29166667,8.40666667 7.29166667,5.41666667 C7.29166667,2.42666667 9.625,0 12.5,0 Z M13.5416667,4.33333333 L13.5416667,2.16666667 L11.4583333,2.16666667 L11.4583333,4.33333333 L9.375,4.33333333 L9.375,6.5 L11.4583333,6.5 L11.4583333,8.66666667 L13.5416667,8.66666667 L13.5416667,6.5 L15.625,6.5 L15.625,4.33333333 L13.5416667,4.33333333 Z" id="Shape"></path>
            </g>
        </g>
    </g>
</svg>