<?xml version="1.0" encoding="UTF-8"?>
<svg width="24px" height="26px" viewBox="0 0 24 26" version="1.1" xmlns="http://www.w3.org/2000/svg" xmlns:xlink="http://www.w3.org/1999/xlink">
    <!-- Generator: Sketch 52.1 (67048) - http://www.bohemiancoding.com/sketch -->
    <title>ic_e_evakuering</title>
    <desc>Created with Sketch.</desc>
    <g id="Page-1" stroke="none" stroke-width="1" fill="none" fill-rule="evenodd" opacity="0.667015439">
        <g id="Hovedskjerm-Copy-37" transform="translate(-13.000000, -1769.000000)" fill="#4A4A4A" fill-rule="nonzero">
            <g id="ic_e_evakuering" transform="translate(13.000000, 1769.859375)">
                <path d="M6.57,13.96875 C6.197,13.96875 5.829,13.9 5.477,13.765625 L5.884,12.6145833 C6.105,12.6989583 6.335,12.7416667 6.57,12.7416667 C6.83,12.7416667 7.084,12.6895833 7.324,12.5875 L7.771,13.7229167 C7.389,13.8864583 6.985,13.96875 6.57,13.96875 Z M15.24,13.153125 L13.581,12.16875 L14.164,11.1020833 L15.824,12.0864583 L15.24,13.153125 Z M8.785,13.1322917 L8.18,12.0791667 L9.819,11.0572917 L10.424,12.1104167 L8.785,13.1322917 Z M12.703,11.665625 C12.46,11.5604167 12.203,11.50625 11.939,11.50625 C11.709,11.50625 11.482,11.5479167 11.265,11.6302083 L10.864,10.4760417 C11.21,10.3458333 11.572,10.2802083 11.939,10.2791667 C12.359,10.2791667 12.769,10.3645833 13.156,10.5333333 L12.703,11.665625 Z M3.969,11.4958333 C3.434,11.4958333 3,11.946875 3,12.5041667 C3,13.0614583 3.434,13.5125 3.969,13.5125 C4.504,13.5125 4.938,13.0604167 4.938,12.5041667 C4.937,11.946875 4.504,11.4958333 3.969,11.4958333 Z M17.545,4.16666667 L12,1.85037171e-15 L6.455,4.16666667 L1.77635684e-15,0 L1.77635684e-15,20.8333333 L6.455,25 L12,20.8333333 L17.545,25 L24,20.8333333 L24,0 L17.545,4.16666667 Z M22,19.6739583 L18,22.25625 L18,17.7083333 L17,17.7083333 L17,22.021875 L13,19.0166667 L13,14.5833333 L11,14.5833333 L11,19.015625 L7,22.0208333 L7,16.6666667 L6,16.6666667 L6,22.2552083 L2,19.6729167 L2,3.74166667 L6,6.32395833 L6,9.375 L7,9.375 L7,6.32604167 L11,3.31979167 L11,7.29166667 L13,7.29166667 L13,3.31979167 L17,6.32604167 L17,8.33333333 L18,8.33333333 L18,6.32395833 L22,3.74166667 L22,19.6739583 Z M20.672,14.6 L19.376,13.2729167 L20.649,11.9260417 L19.941,11.1947917 L18.669,12.54375 L17.375,11.21875 L16.672,11.95 L17.968,13.2791667 L16.695,14.6291667 L17.398,15.3614583 L18.675,14.009375 L19.97,15.3375 L20.672,14.6 Z" id="Shape"></path>
            </g>
        </g>
    </g>
</svg>