<?xml version="1.0" encoding="UTF-8"?>
<svg width="23px" height="23px" viewBox="0 0 23 23" version="1.1" xmlns="http://www.w3.org/2000/svg" xmlns:xlink="http://www.w3.org/1999/xlink">
    <!-- Generator: Sketch 52.1 (67048) - http://www.bohemiancoding.com/sketch -->
    <title>ic_gear</title>
    <desc>Created with Sketch.</desc>
    <g id="ic_gear" stroke="none" stroke-width="1" fill="none" fill-rule="evenodd">
        <path d="M11.500039,15 C9.56995772,15 8,13.4300598 8,11.5 C8,9.57001829 9.56995772,8 11.500039,8 C13.4299642,8 15,9.57001829 15,11.5 C15,13.4300598 13.4299642,15 11.500039,15 M21.9343186,10.3341322 C21.9011102,10.0389362 21.5569156,9.81710947 21.2592907,9.81710947 C20.2970303,9.81710947 19.4431462,9.25211151 19.0850431,8.37832197 C18.7192044,7.48335771 18.9551009,6.43962341 19.6722447,5.78180045 C19.8979833,5.57544454 19.9254094,5.2300074 19.7360828,4.99005321 C19.2435836,4.3646565 18.6838083,3.79973667 18.0726186,3.3101395 C17.833206,3.11808238 17.4821352,3.14480473 17.2746026,3.3746013 C16.6487231,4.06774151 15.5244841,4.32535433 14.6556759,3.96288364 C13.7517058,3.58259806 13.1816163,2.6665372 13.2374063,1.68320166 C13.2556904,1.37433195 13.03003,1.10578016 12.7220911,1.06991596 C11.9377492,0.979200615 11.1465312,0.976387736 10.3598452,1.06366511 C10.0554224,1.09726339 9.82968383,1.3594862 9.83991981,1.66444914 C9.87414394,2.63809587 9.29717836,3.53813895 8.40211596,3.90475082 C7.54377808,4.2553449 6.42743095,3.99991988 5.80280163,3.31295237 C5.59636297,3.0866719 5.25091811,3.05885566 5.01041161,3.24630277 C4.38109406,3.74004114 3.80873857,4.30542977 3.31170742,4.92566954 C3.11784886,5.16679576 3.14636896,5.51629595 3.37437351,5.72374576 C4.10519137,6.38555363 4.34116591,7.43835165 3.96149693,8.3436298 C3.59901815,9.20671477 2.70278369,9.76296155 1.67676324,9.76296155 C1.34382034,9.75225698 1.10667374,9.97572458 1.07026177,10.2784216 C0.977903522,11.0672778 0.976809601,11.8710579 1.06572981,12.6662431 C1.09870374,12.9626893 1.45336879,13.1826408 1.75427541,13.1826408 C2.66863771,13.1592783 3.54650991,13.7253701 3.91477085,14.6215064 C4.28185973,15.5164707 4.04588518,16.5595799 3.32764742,17.2178717 C3.10300278,17.4243057 3.07448267,17.7691959 3.26380927,18.0091501 C3.75169837,18.6304838 4.31155189,19.1960287 4.92492944,19.6896889 C5.16551408,19.8835431 5.51556904,19.8561957 5.7241174,19.6263991 C6.35234103,18.9315399 7.47650189,18.6743959 8.34179399,19.0374917 C9.24810815,19.4166834 9.81819765,20.3326661 9.76240765,21.3164705 C9.74420166,21.6254964 9.97103415,21.8945952 10.2777229,21.9299124 C10.6789578,21.9767156 11.0826149,22 11.487366,22 C11.8715669,22 12.2557678,21.9789815 12.6399688,21.9362414 C12.9445479,21.902565 13.1701301,21.6404203 13.1598942,21.3349104 C13.1246543,20.3618107 13.7026356,19.4617676 14.596526,19.0957808 C15.460646,18.7428426 16.5723049,19.0011587 17.1970123,19.687423 C17.4046231,19.9131565 17.7476457,19.9405039 17.9894024,19.7536038 C18.6175479,19.2611156 19.1888094,18.6961957 19.6881847,18.074237 C19.8819651,17.8336577 19.8545389,17.4836106 19.6254405,17.2761608 C18.8945445,16.614431 18.657476,15.5614767 19.037145,14.6568237 C19.394076,13.8052246 20.257024,13.2334289 21.1852166,13.2334289 L21.3150807,13.2367887 C21.6160655,13.2612451 21.8930621,13.0293389 21.9296303,12.7220319 C22.0221449,11.9324724 22.0231606,11.1293956 21.9343186,10.3341322" id="ic_settings" stroke="#002D73"></path>
    </g>
</svg>