<?xml version="1.0" encoding="UTF-8"?>
<svg width="18px" height="28px" viewBox="0 0 18 28" version="1.1" xmlns="http://www.w3.org/2000/svg" xmlns:xlink="http://www.w3.org/1999/xlink">
    <!-- Generator: Sketch 52.1 (67048) - http://www.bohemiancoding.com/sketch -->
    <title>ic_h_brann</title>
    <desc>Created with Sketch.</desc>
    <g id="Page-1" stroke="none" stroke-width="1" fill="none" fill-rule="evenodd">
        <g id="Hovedskjerm-Copy-37" transform="translate(-16.000000, -297.000000)">
            <rect fill="#F8F5F3" x="0" y="0" width="375" height="2033"></rect>
            <g id="ic_h_brann" opacity="0.404087612" transform="translate(16.000000, 297.000000)" fill="#000000" fill-rule="nonzero">
                <path d="M16.875,28 L1.125,28 L1.125,25.6666667 L16.875,25.6666667 L16.875,28 Z M7.171875,5.0015 C8.71425,7.72916667 8.753625,12.7598333 7.558875,14.8563333 C10.441125,14.4923333 13.31325,11.5453333 13.942125,9.56783333 C15.1155,11.2466667 15.75,13.2358333 15.75,15.3615 C15.75,17.1745 14.78025,19.9826667 12.128625,21.3838333 C11.88225,19.761 10.863,17.9935 9.160875,16.9901667 C7.540875,17.9748333 6.35175,20.1261667 6.028875,21.5845 C4.640625,20.9451667 2.25,18.9945 2.25,16.3333333 C2.25,12.5055 5.297625,10.9841667 7.171875,5.0015 Z M5.625,3.10862447e-15 C6.23475,7.34066667 0,9.86766667 0,16.3333333 C0,20.7246667 3.92625,23.8233333 7.875,24.5058333 C7.6815,22.8048333 8.209125,21.1645 9.18675,20.1985 C10.143,21.0921667 10.58175,23.079 10.125,24.5011667 C14.4765,23.6261667 18,20.0001667 18,15.3626667 C18,11.1323333 15.937875,7.14583333 12.047625,4.66666667 C12.727125,7.364 11.8485,9.22366667 10.61775,10.3786667 C10.688625,6.96966667 9.316125,2.40566667 5.625,3.10862447e-15 Z" id="Shape"></path>
            </g>
        </g>
    </g>
</svg>