<?xml version="1.0" encoding="UTF-8"?>
<svg width="35px" height="23px" viewBox="0 0 35 23" version="1.1" xmlns="http://www.w3.org/2000/svg" xmlns:xlink="http://www.w3.org/1999/xlink">
    <!-- Generator: Sketch 52.1 (67048) - http://www.bohemiancoding.com/sketch -->
    <title>ic_h_trafikk</title>
    <desc>Created with Sketch.</desc>
    <g id="Page-1" stroke="none" stroke-width="1" fill="none" fill-rule="evenodd" opacity="0.588216146">
        <g id="Hovedskjerm-Copy-37" transform="translate(-9.000000, -256.000000)">
            <g id="ic_h_trafikk" transform="translate(9.000000, 259.000000)">
                <g id="iconmonstr-car-2-(1)" transform="translate(0.000000, 6.000000)" fill="#4A4A4A" fill-rule="nonzero">
                    <path d="M11,5.89258312 L11,2.94629156 L12.247,2.94629156 C13.129,2.94629156 13.482,3.23797442 14.075,3.8390179 C14.527,4.29569309 16,5.89258312 16,5.89258312 L11,5.89258312 Z M10,2.94629156 L7.757,2.94629156 C7.069,2.94629156 6.706,3.16431714 6.38,3.51689003 C6.064,3.85865985 5.485,4.44791816 4.874,5.15797442 C6.593,5.79044501 8.929,5.89258312 10,5.89258312 L10,2.94629156 Z M24,8.01489514 C24,5.24243478 21.97,4.66594373 21.206,4.44890026 C20.064,4.12382609 19.552,3.98240409 18.175,3.66911509 C17.625,3.13387212 16.123,1.66956522 15.786,1.33565217 L15.697,1.24628133 C15.031,0.57943734 14.276,0 12.525,0 L4.885,0 C4.338,0 4.094,0.447836317 4.631,0.927099744 C4.097,1.38082864 2.687,2.60255754 2.291,2.99736061 C0.907,4.37426087 0,5.43296164 0,7.51795396 C0,9.93489514 1.361,11.6997238 3.179,11.772399 C3.589,12.9204706 4.691,13.7493606 6,13.7493606 C7.304,13.7493606 8.403,12.9263632 8.816,11.7851662 L15.183,11.7851662 C15.596,12.9263632 16.695,13.7493606 17.999,13.7493606 C19.307,13.7493606 20.408,12.9214527 20.819,11.7753453 C22.753,11.7203478 24,10.297289 24,8.01489514 Z M6,11.9815857 C5.338,11.9815857 4.8,11.4532174 4.8,10.8030691 C4.8,10.1529207 5.338,9.62455243 6,9.62455243 C6.662,9.62455243 7.2,10.1529207 7.2,10.8030691 C7.2,11.4532174 6.662,11.9815857 6,11.9815857 Z M18,11.9815857 C17.338,11.9815857 16.8,11.4532174 16.8,10.8030691 C16.8,10.1529207 17.338,9.62455243 18,9.62455243 C18.662,9.62455243 19.2,10.1529207 19.2,10.8030691 C19.2,11.4532174 18.662,11.9815857 18,11.9815857 Z M20.832,9.87007673 C20.433,8.70334527 19.323,7.85677749 18,7.85677749 C16.673,7.85677749 15.56,8.70923785 15.164,9.88186189 L8.836,9.88186189 C8.44,8.70923785 7.327,7.85677749 6,7.85677749 C4.681,7.85677749 3.574,8.69843478 3.171,9.86025575 C2.585,9.74829668 2,8.84182097 2,7.51795396 C2,6.20685422 2.47,5.61464962 3.714,4.37622506 C4.439,3.65438363 5.024,3.18886957 5.977,2.38649616 C6.317,2.10070588 6.751,1.96223018 7.199,1.96419437 L12.372,1.96419437 C13.592,1.96419437 13.949,2.34230179 14.488,2.84022506 C14.907,3.22618926 17.17,5.45751407 17.17,5.45751407 C17.17,5.45751407 19.473,6.00159591 20.65,6.33649105 C21.49,6.57514066 22,6.8069156 22,8.01587724 C22,9.19046547 21.604,9.8091867 20.832,9.87007673 Z" id="Shape"></path>
                </g>
                <polyline id="Path-3" stroke="#4A4A4A" stroke-width="2" points="19.4997386 6.91427211 18 3.88696569 22.1709357 4.45580984 23.742551 0 25.9247256 4.45580984 30.8502352 1.95518074 28.5554104 6.91427211 32 9.36375693 28.1782541 10.864352 28.5554104 16 26.8141662 14.5978849"></polyline>
            </g>
        </g>
    </g>
</svg>