<?xml version="1.0" encoding="UTF-8"?>
<svg width="26px" height="26px" viewBox="0 0 26 26" version="1.1" xmlns="http://www.w3.org/2000/svg" xmlns:xlink="http://www.w3.org/1999/xlink">
    <!-- Generator: Sketch 52.1 (67048) - http://www.bohemiancoding.com/sketch -->
    <title>ic_info</title>
    <desc>Created with Sketch.</desc>
    <g id="ic_info" stroke="none" stroke-width="1" fill="none" fill-rule="evenodd">
        <g fill="#002D73" fill-rule="nonzero" id="Shape">
            <path d="M13.9375,6.96875 C13.9375,7.5035 13.5035,7.9375 12.96875,7.9375 C12.434,7.9375 12,7.5035 12,6.96875 C12,6.434 12.434,6 12.96875,6 C13.5035,6 13.9375,6.434 13.9375,6.96875 Z M26,13 C26,20.17925 20.17925,26 13,26 C5.82075,26 0,20.17925 0,13 C0,5.82075 5.82075,0 13,0 C20.17925,0 26,5.82075 26,13 Z M25,13 C25,6.3832 19.6354917,1 13.0416667,1 C6.44784167,1 1.08333333,6.3832 1.08333333,13 C1.08333333,19.6168 6.44784167,25 13.0416667,25 C19.6354917,25 25,19.6168 25,13 Z M10.5,10 L10.5,11.3378518 L12.4068779,11.3378518 L12.4068779,18.6666667 L13.6506645,18.6666667 L13.6506645,10 L10.5,10 Z"></path>
        </g>
    </g>
</svg>