<?xml version="1.0" encoding="UTF-8"?>
<svg width="77px" height="38px" viewBox="0 0 77 38" version="1.1" xmlns="http://www.w3.org/2000/svg" xmlns:xlink="http://www.w3.org/1999/xlink">
    <!-- Generator: Sketch 52.1 (67048) - http://www.bohemiancoding.com/sketch -->
    <title>ic_logo_color_simple</title>
    <desc>Created with Sketch.</desc>
    <g id="Page-1" stroke="none" stroke-width="1" fill="none" fill-rule="evenodd">
        <g id="Et-spørsmål-Copy-10" transform="translate(-150.000000, -27.000000)">
            <rect fill="#FFFFFF" opacity="0" x="0" y="0" width="375" height="812"></rect>
            <g id="EMBLEM" transform="translate(150.643678, 27.000000)">
                <g id="Group">
                    <path d="M42.3389989,18.8033681 L46.356704,16.483778 C45.959182,15.0467636 45.2017125,13.7596206 44.1854908,12.7256791 L40.1688532,15.0448422 L40.1688532,10.404381 C39.4754313,10.2259018 38.7482777,10.1308978 37.9989209,10.1308978 C37.2495641,10.1308978 36.5224105,10.2259018 35.8287752,10.404381 L35.8287752,15.0448422 L31.8121375,12.7256791 C30.7961293,13.7596206 30.0384463,15.0467636 29.6409243,16.483778 L33.6588429,18.8033681 L29.6443402,21.1210368 C30.0431432,22.5571972 30.8008261,23.8443402 31.8166208,24.8784952 L35.8287752,22.5621075 L35.8287752,27.2012877 C36.5224105,27.3804074 37.2495641,27.4758383 37.9989209,27.4758383 C38.7482777,27.4758383 39.4754313,27.3804074 40.1688532,27.2012877 L40.1688532,22.5621075 L44.1810075,24.8784952 C45.1968022,23.8443402 45.9546987,22.5571972 46.3535016,21.1210368 L42.3389989,18.8033681 Z" id="Fill-1" fill="#002D73"></path>
                    <path d="M75.9027739,10.1295101 L47.7011269,10.1297236 C49.2457412,11.9211346 50.1385646,13.5953386 50.6917222,15.9181311 C50.9207991,16.8801258 51.0113197,17.7765785 51.0113197,18.8009129 C51.0113197,19.8254608 50.895607,20.7509485 50.6853175,21.7080329 C50.0723821,24.4987998 48.4509107,26.8986628 46.743829,28.4366589 C44.6430681,30.3299056 41.5824474,31.8132477 38.0028278,31.8132477 L38.0028278,37.5999471 C44.9432378,37.5999471 51.3642219,33.780576 54.6573353,27.4972943 L59.0469434,27.4972943 L64.6938057,21.7082464 L56.5531439,21.7082464 C56.7077121,20.7436897 56.7728271,19.8352815 56.7820073,18.8239701 C56.7914009,17.8113777 56.710701,16.8794853 56.5678748,15.9196255 L70.2836656,15.919412 L75.9027739,10.1295101 Z" id="Fill-3" fill="#002D73"></path>
                    <path d="M0.0624677464,10.1297663 L5.68669984,15.9192412 L19.4135922,15.9175333 C19.2524057,16.8831574 19.2007407,17.7349903 19.2007407,18.7463017 C19.2007407,19.7578266 19.2690581,20.740957 19.4302445,21.7063677 L11.3107184,21.7080756 L16.934737,27.4971235 L28.3189821,27.4971235 C26.8964852,25.8976418 25.8623302,24.0396213 25.3123749,21.7080756 C25.0873544,20.7550475 24.9863727,19.8244361 24.9863727,18.8009556 C24.9863727,17.7744863 25.1037933,16.8118511 25.322409,15.8603174 C25.8612627,13.5159623 27.366381,10.9561937 29.1054865,9.30291199 C31.1577847,7.35159551 34.2781831,5.78776693 38.0027638,5.78776693 L38.0027638,0 C30.2429716,0 24.1567429,4.6287191 21.3055579,10.1280584 L0.0624677464,10.1297663 Z" id="Fill-5" fill="#EB0029"></path>
                    <path d="M38.9276109,21.097574 C38.9276109,20.7030409 38.6818817,20.3674315 38.3362382,20.2312236 L38.3362382,20.0990721 C38.6818817,19.9630777 38.9276109,19.6274684 38.9276109,19.2329353 C38.9276109,18.8381886 38.6818817,18.5027928 38.3362382,18.3665849 L38.3362382,18.2342199 C38.6818817,18.0982255 38.9276109,17.7626162 38.9276109,17.368083 C38.9276109,16.9735499 38.6818817,16.6379405 38.3362382,16.5019462 L38.3362382,14.4910654 C38.2256494,14.4827392 38.115274,14.4741996 38.0025503,14.4741996 C37.8861972,14.4741996 37.771552,14.4827392 37.6573338,14.4917059 L37.6573338,15.630472 C37.3114768,15.7664664 37.0657476,16.1020757 37.0657476,16.4968223 C37.0657476,16.8913555 37.3114768,17.2269648 37.6573338,17.3629592 L37.6573338,17.4951107 C37.3114768,17.6313186 37.0657476,17.9667145 37.0657476,18.3616746 C37.0657476,18.7562077 37.3114768,19.0916036 37.6573338,19.2278115 L37.6573338,19.3315685 C37.3114768,19.4675629 37.0657476,19.8031723 37.0657476,20.1977054 C37.0657476,20.592452 37.3114768,20.9278479 37.6573338,21.0640558 L37.6573338,23.1396246 C37.771552,23.1488047 37.8861972,23.1571309 38.0025503,23.1571309 C38.115274,23.1571309 38.2256494,23.1488047 38.3362382,23.140265 L38.3362382,21.9639244 C38.6818817,21.8277165 38.9276109,21.4923206 38.9276109,21.097574" id="Fill-7" fill="#FFFFFF"></path>
                    <path d="M38.5726528,19.4124543 C38.5726528,19.5429543 38.4666528,19.6489543 38.3361528,19.6489543 L38.3361528,19.1759543 C38.4666528,19.1759543 38.5726528,19.2819543 38.5726528,19.4124543" id="Fill-9" fill="#002D73"></path>
                    <polygon id="Fill-11" fill="#002D73" points="37.6072486 23.1448765 37.7257486 23.1448765 37.7257486 20.1694391 37.6072486 20.1694391"></polygon>
                    <polygon id="Fill-13" fill="#002D73" points="37.6072486 19.3178197 37.7257486 19.3178197 37.7257486 18.2561242 37.6072486 18.2561242"></polygon>
                    <polygon id="Fill-14" fill="#002D73" points="37.6072486 17.4935309 37.7257486 17.4935309 37.7257486 16.4318354 37.6072486 16.4318354"></polygon>
                    <polygon id="Fill-15" fill="#002D73" points="38.3363236 21.179256 38.4548236 21.179256 38.4548236 20.1175605 38.3363236 20.1175605"></polygon>
                    <polygon id="Fill-16" fill="#002D73" points="38.3363236 19.3178197 38.4548236 19.3178197 38.4548236 18.2561242 38.3363236 18.2561242"></polygon>
                    <polygon id="Fill-17" fill="#002D73" points="38.3363236 17.4264944 38.4548236 17.4264944 38.4548236 16.3645854 38.3363236 16.3645854"></polygon>
                    <path d="M38.5726528,17.5619273 C38.5726528,17.6924273 38.4666528,17.7984273 38.3361528,17.7984273 L38.3361528,17.3254273 C38.4666528,17.3254273 38.5726528,17.4314273 38.5726528,17.5619273" id="Fill-18" fill="#002D73"></path>
                    <path d="M38.5726528,21.2666532 C38.5726528,21.3971532 38.4666528,21.5031532 38.3361528,21.5031532 L38.3361528,21.0301532 C38.4666528,21.0301532 38.5726528,21.1361532 38.5726528,21.2666532" id="Fill-19" fill="#002D73"></path>
                    <path d="M37.5566937,20.3009224 C37.5566937,20.4314224 37.6621937,20.5374224 37.7931937,20.5374224 L37.7931937,20.0644224 C37.6621937,20.0644224 37.5566937,20.1704224 37.5566937,20.3009224" id="Fill-20" fill="#002D73"></path>
                    <path d="M37.5562667,18.4352802 C37.5562667,18.5657802 37.6622667,18.6717802 37.7927667,18.6717802 L37.7927667,18.1987802 C37.6622667,18.1987802 37.5562667,18.3047802 37.5562667,18.4352802" id="Fill-21" fill="#002D73"></path>
                    <path d="M37.5562667,16.572755 C37.5562667,16.703255 37.6622667,16.809255 37.7927667,16.809255 L37.7927667,16.336255 C37.6622667,16.336255 37.5562667,16.442255 37.5562667,16.572755" id="Fill-22" fill="#002D73"></path>
                    <path d="M38.0606503,15.9283404 C38.0606503,16.0193404 37.9871503,16.0928404 37.8961503,16.0928404 C37.8056503,16.0928404 37.7316503,16.0193404 37.7316503,15.9283404 C37.7316503,15.8373404 37.8056503,15.7638404 37.8961503,15.7638404 C37.9871503,15.7638404 38.0606503,15.8373404 38.0606503,15.9283404" id="Fill-23" fill="#002D73"></path>
                    <path d="M38.2066486,15.66905 C38.2066486,15.6462063 38.2055811,15.6240032 38.2032327,15.6018 L38.2017383,15.5834397 L38.1835915,15.5793834 C38.1765462,15.5778889 38.0104495,15.5426627 37.9188614,15.5426627 C37.6310743,15.5426627 37.3607935,15.669904 37.1774039,15.8923626 L37.2160459,15.9245999 C37.3900419,15.7138833 37.6462322,15.5930468 37.9188614,15.5930468 C37.9880328,15.5930468 38.1088693,15.615677 38.15477,15.6250706 C38.155624,15.6395881 38.1562645,15.654319 38.1562645,15.66905 C38.1562645,15.8643951 38.0710812,16.0439419 37.9261202,16.1726775 L37.9261202,16.2429164 C38.1043859,16.1039331 38.2066486,15.894711 38.2066486,15.66905" id="Fill-24" fill="#002D73"></path>
                </g>
            </g>
        </g>
    </g>
</svg>