<?xml version="1.0" encoding="UTF-8"?>
<svg width="29px" height="24px" viewBox="0 0 29 24" version="1.1" xmlns="http://www.w3.org/2000/svg" xmlns:xlink="http://www.w3.org/1999/xlink">
    <!-- Generator: Sketch 52.1 (67048) - http://www.bohemiancoding.com/sketch -->
    <title>ic_n_quartro</title>
    <desc>Created with Sketch.</desc>
    <g id="Page-1" stroke="none" stroke-width="1" fill="none" fill-rule="evenodd" opacity="0.668573289">
        <g id="Hovedskjerm-Copy-37" transform="translate(-10.000000, -1072.000000)" fill="#4A4A4A" fill-rule="nonzero">
            <g id="ic_n_quartro" transform="translate(10.500000, 1072.625000)">
                <path d="M16.5744544,20.3147415 L14.3915455,22.5143556 C13.9528636,22.9562153 13.3170082,23.1111689 12.7359881,22.9186875 L8.19166396,21.4393653 C7.62931115,21.2529368 7.20346306,20.7699176 7.07629198,20.1694725 L6.39726846,16.9844507 L8.84151982,17.7858511 L9.07836135,18.9020009 C9.16353097,19.2990694 9.44470738,19.6186611 9.81688694,19.7433503 L12.2809723,20.5374872 C12.6671524,20.6658081 13.0883336,20.5629093 13.3800104,20.2687397 L14.1278697,19.5145517 L16.5744544,20.3147415 Z M27.980183,9.91590542 C27.7188406,3.14031922 24.9012429,-0.734730172 22.7276676,0.116303792 C20.9006043,0.836595697 9.00602552,5.95369466 3.85151358,8.16662508 C3.47816731,8.32642093 3.14565579,8.39058139 2.84814548,8.39058139 C1.98944906,8.39058139 1.41309576,7.86156027 0.914911828,7.60855018 C-0.35796561,9.3396719 -0.291463306,12.9266045 1.04441632,14.6020398 C1.55893414,14.2303934 2.17495549,13.5984734 3.10715446,13.5984734 C3.33466234,13.5984734 3.58200424,13.6360013 3.85268029,13.7243732 C9.02352612,15.4252306 21.6076288,19.5399737 23.4976943,20.1404187 C25.8952774,20.9018702 28.2403586,16.6987551 27.980183,9.91590542 Z M4.55737137,11.4158074 C4.07318793,11.2560115 3.85034687,10.7863086 4.7428778,10.403767 C4.7428778,10.403767 16.4216158,5.3883563 20.1165772,3.82066216 C18.7585301,7.47417639 18.8647004,12.8358114 20.4712561,16.6236994 C15.8522627,15.1177446 8.34800272,12.6626993 4.55737137,11.4158074 Z M24.4648945,17.1406148 C24.2630542,17.4989449 23.7788707,17.5461573 23.5175283,17.2277762 C21.0616099,14.2352357 20.8049343,6.33139394 23.0391784,3.23595461 C23.2841869,2.89941487 23.7742039,2.91757349 23.9947115,3.26742955 C26.0901175,6.59893093 26.191621,14.069387 24.4648945,17.1406148 Z" id="Shape"></path>
            </g>
        </g>
    </g>
</svg>