<?xml version="1.0" encoding="utf-8"?>
<!-- Generator: Adobe Illustrator 23.0.1, SVG Export Plug-In . SVG Version: 6.00 Build 0)  -->
<svg version="1.1" id="Layer_1" xmlns="http://www.w3.org/2000/svg" xmlns:xlink="http://www.w3.org/1999/xlink" x="0px" y="0px"
	 viewBox="0 0 24 24" style="enable-background:new 0 0 24 24;" xml:space="preserve">
<style type="text/css">
	.st0{fill:#4A4A4A;}
	.st1{fill-rule:evenodd;clip-rule:evenodd;fill:#4A4A4A;}
</style>
<title>ic_oppmotested</title>
<g id="ic_oppmotested">
	<g id="Group" transform="translate(0.500000, 0.500000)">
		<polygon id="Path" class="st0" points="3.3,9.4 4.3,8.2 7.5,11.8 4.3,15.3 3.3,14.1 4.6,12.6 0.8,12.6 0.8,10.9 4.6,10.9 		"/>
		<polygon class="st0" points="12.4,4.9 13.9,3.5 15.1,4.6 11.5,7.7 8,4.6 9.2,3.5 10.7,4.9 10.7,1 12.4,1 		"/>
		<polygon id="Shape" class="st0" points="19.9,14.1 18.8,15.3 15.7,11.8 18.8,8.2 19.9,9.4 18.6,10.9 22.4,10.9 22.4,12.6 
			18.6,12.6 		"/>
		<polygon class="st0" points="9.2,20 8,18.9 11.6,15.8 15.1,18.9 13.9,20 12.4,18.6 12.4,22.5 10.8,22.5 10.8,18.6 		"/>
		<circle id="Oval" class="st1" cx="11.6" cy="11.7" r="2.2"/>
	</g>
</g>
</svg>
