<?xml version="1.0" encoding="UTF-8"?>
<svg width="46px" height="68px" viewBox="0 0 46 68" version="1.1" xmlns="http://www.w3.org/2000/svg" xmlns:xlink="http://www.w3.org/1999/xlink">
    <!-- Generator: Sketch 52.1 (67048) - http://www.bohemiancoding.com/sketch -->
    <title>ic_poi_selected_position</title>
    <desc>Created with Sketch.</desc>
    <g id="Page-1" stroke="none" stroke-width="1" fill="none" fill-rule="evenodd">
        <g id="KART-1" transform="translate(-64.265625, -147.000000)" fill="#D0021B" fill-rule="nonzero">
            <g id="ic_poi_selected_position" transform="translate(64.335938, 147.688953)">
                <path d="M22.6438641,5.56165082 C31.6900877,5.56165082 39.6267621,12.8418517 39.6267621,21.1398348 C39.6267621,29.7409278 32.570368,40.9726816 22.6438641,56.3478653 C12.7173602,40.9726816 5.66096601,29.7409278 5.66096601,21.1398348 C5.66096601,12.8418517 13.5976404,5.56165082 22.6438641,5.56165082 Z M22.6438641,0 C10.7614964,0 0,9.46314887 0,21.1398348 C0,32.8137398 9.81894555,46.7512368 22.6438641,66.7398099 C35.4687826,46.7512368 45.2877281,32.8137398 45.2877281,21.1398348 C45.2877281,9.46314887 34.5290622,4.93973824e-15 22.6438641,0 Z M22.6438641,30.5890795 C17.9537537,30.5890795 14.152415,26.854431 14.152415,22.2466033 C14.152415,17.6387756 17.9537537,13.9041271 22.6438641,13.9041271 C27.3339744,13.9041271 31.1353131,17.6387756 31.1353131,22.2466033 C31.1353131,26.854431 27.3339744,30.5890795 22.6438641,30.5890795 Z" id="Shape"></path>
            </g>
        </g>
    </g>
</svg>