<?xml version="1.0" encoding="UTF-8"?>
<svg width="19px" height="21px" viewBox="0 0 19 21" version="1.1" xmlns="http://www.w3.org/2000/svg" xmlns:xlink="http://www.w3.org/1999/xlink">
    <!-- Generator: Sketch 52.1 (67048) - http://www.bohemiancoding.com/sketch -->
    <title>ic_p_type</title>
    <desc>Created with Sketch.</desc>
    <g id="Page-1" stroke="none" stroke-width="1" fill="none" fill-rule="evenodd" opacity="0.667015439">
        <g id="Hovedskjerm-Copy-37" transform="translate(-15.000000, -1521.000000)" fill="#4A4A4A" fill-rule="nonzero">
            <g id="ic_p_type" transform="translate(15.000000, 1521.902344)">
                <path d="M17.1340417,1.94 C15.8301667,0.568333333 14.523125,0 13.4385417,0 C12.6698333,0.000833333333 12.01275,0.286666667 11.5488333,0.775 L0.737041667,12.1558333 C0.271541667,12.645 0,13.3366667 0,14.145 C0,15.2866667 0.540708333,16.6625 1.84379167,18.0341667 C3.16429167,19.425 4.481625,20 5.57016667,20 C6.33808333,20 6.99120833,19.7141667 7.45433333,19.2266667 L18.2653333,7.84666667 C18.72925,7.35833333 19,6.67083333 19,5.8625 C19,4.71666667 18.45375,3.33083333 17.1340417,1.94 Z M16.0138333,3.11833333 C17.477625,4.65833333 17.689,6.09666667 17.1467083,6.66833333 L14.9070833,9.025 L10.428625,4.31083333 L12.6674583,1.95416667 C13.2113333,1.38166667 14.5674583,1.59666667 16.0138333,3.11833333 Z M13.7876667,10.2033333 L9.69395833,14.5125 L5.2155,9.79833333 L9.30920833,5.48916667 L13.7876667,10.2033333 Z M2.96320833,16.8558333 C1.517625,15.3333333 1.31416667,13.905 1.85645833,13.3333333 L4.09608333,10.9766667 L8.57454167,15.6908333 L6.33491667,18.0483333 C5.792625,18.62 4.42541667,18.3966667 2.96320833,16.8558333 Z M8.661625,9.1175 C8.42966667,9.36166667 8.053625,9.36166667 7.82166667,9.1175 C7.58970833,8.87166667 7.58970833,8.4775 7.82166667,8.23333333 C8.053625,7.99 8.42966667,7.98916667 8.661625,8.23333333 C8.89358333,8.47833333 8.89358333,8.87416667 8.661625,9.1175 Z M11.1815,10.8858333 C10.9503333,10.6408333 10.5727083,10.6408333 10.34075,10.885 C10.1095833,11.1291667 10.1095833,11.525 10.3415417,11.77 C10.5727083,12.0116667 10.9495417,12.0141667 11.1815,11.77 C11.4126667,11.525 11.4126667,11.1291667 11.1815,10.8858333 Z M9.92195833,9.56 C9.69,9.315 9.312375,9.315 9.082,9.56 C8.85004167,9.80416667 8.85004167,10.1991667 9.082,10.4433333 C9.31395833,10.6883333 9.69,10.6883333 9.92195833,10.4433333 C10.153125,10.1983333 10.1539167,9.80416667 9.92195833,9.56 Z M9.78104167,7.9375 C9.54908333,8.18166667 9.17304167,8.18083333 8.94108333,7.9375 C8.709125,7.69333333 8.709125,7.2975 8.94108333,7.05333333 C9.17304167,6.80916667 9.54908333,6.80916667 9.78104167,7.05333333 C10.0122083,7.2975 10.013,7.69333333 9.78104167,7.9375 Z M12.300125,9.705 C12.0681667,9.46083333 11.692125,9.46166667 11.4601667,9.705 C11.2282083,9.94916667 11.2282083,10.345 11.4601667,10.5891667 C11.692125,10.8333333 12.0681667,10.8333333 12.300125,10.5891667 C12.5320833,10.3458333 12.5320833,9.94916667 12.300125,9.705 Z M11.041375,8.37916667 C10.8094167,8.13583333 10.4317917,8.13583333 10.200625,8.38 C9.96945833,8.62333333 9.96945833,9.02083333 10.200625,9.26416667 C10.433375,9.5075 10.8094167,9.50833333 11.041375,9.265 C11.27175,9.01916667 11.2733333,8.62333333 11.041375,8.37916667 Z M7.54220833,10.2966667 C7.31025,10.54 6.93420833,10.54 6.70225,10.2966667 C6.47029167,10.0525 6.47029167,9.65583333 6.70225,9.4125 C6.93420833,9.16833333 7.31025,9.16833333 7.54220833,9.4125 C7.77416667,9.65666667 7.77416667,10.0525 7.54220833,10.2966667 Z M10.0612917,12.0641667 C9.82854167,11.82 9.45329167,11.82 9.22133333,12.0641667 C8.989375,12.3083333 8.99016667,12.7041667 9.22133333,12.9483333 C9.45329167,13.1933333 9.830125,13.1933333 10.0612917,12.9483333 C10.29325,12.7033333 10.29325,12.3091667 10.0612917,12.0641667 Z M8.80175,10.7375 C9.03370833,10.9816667 9.03370833,11.3766667 8.80175,11.6216667 C8.57058333,11.8658333 8.19375,11.8658333 7.96179167,11.6216667 C7.73141667,11.3791667 7.73141667,10.9825 7.96179167,10.7375 C8.19375,10.4933333 8.571375,10.495 8.80175,10.7375 Z M14.25,16.1783333 L15.3694167,15 L17.60825,17.3575 L16.4888333,18.5358333 L14.25,16.1783333 Z M11.875,20 L11.875,16.6666667 L13.4583333,16.6666667 L13.4583333,20 L11.875,20 Z M19,14.1666667 L15.8333333,14.1666667 L15.8333333,12.5 L19,12.5 L19,14.1666667 Z M1.39175,2.64333333 L2.51116667,1.465 L4.75,3.82166667 L3.63058333,5 L1.39175,2.64333333 Z M3.16666667,7.5 L0,7.5 L0,5.83333333 L3.16666667,5.83333333 L3.16666667,7.5 Z M5.54166667,3.33333333 L5.54166667,0 L7.125,0 L7.125,3.33333333 L5.54166667,3.33333333 Z" id="Shape"></path>
            </g>
        </g>
    </g>
</svg>