<?xml version="1.0" encoding="UTF-8"?>
<svg width="24px" height="24px" viewBox="0 0 24 24" version="1.1" xmlns="http://www.w3.org/2000/svg" xmlns:xlink="http://www.w3.org/1999/xlink">
    <!-- Generator: Sketch 53.2 (72643) - https://sketchapp.com -->
    <title>ic_pasienter</title>
    <desc>Created with Sketch.</desc>
    <g id="ic_pasienter" stroke="none" stroke-width="1" fill="none" fill-rule="evenodd">
        <path d="M2.40063289,16.4527785 C2.56844905,16.4119802 2.56844905,16.4119802 2.73515422,16.3713714 C4.44754081,15.9534952 5.24241672,15.6910141 5.83254314,15.2721224 C6.55490661,14.7593644 6.70287011,14.0937045 6.20381011,13.1010259 C2.89642946,6.52863501 4.63165318,1.85 9.19796918,1.85 C13.7958486,1.85 15.5282042,6.6243249 12.1914838,13.1035018 C11.675642,14.1048492 11.8321738,14.7758661 12.5820094,15.2930099 C13.1857767,15.709414 13.955536,15.958224 15.7160889,16.3863919 C15.8549298,16.4201316 15.8549298,16.4201316 15.9940822,16.4539707 C18.0914536,16.963368 18.5435019,17.8252077 18.543501,20.3599984 L18.5400522,21.3619527 L18.3900531,21.5114364 L16.8622543,21.5114364 L16.7122543,21.3614364 C16.7124056,21.15126 16.7124056,21.15126 16.712859,20.9547664 C16.7181224,18.7115233 16.6655775,18.5886702 15.4747787,18.2915747 C15.4464103,18.2845301 15.4464103,18.2845301 15.4175079,18.2774807 C12.1543914,17.4860717 10.9707887,16.9349978 10.3131366,15.4027274 C9.92548759,14.4978431 9.94651472,13.4180286 10.5774566,12.1977483 C12.1344782,9.17305997 12.5253176,6.56651194 11.6711757,5.05906517 C10.6960482,3.33276284 7.72078482,3.32669587 6.74499178,5.03325763 C5.89348985,6.51895109 6.27903968,9.14072805 7.8248558,12.2122894 C8.4417713,13.4383107 8.45559873,14.5182425 8.06528181,15.4166789 C7.40370174,16.941373 6.21007339,17.4930202 2.91653017,18.2919587 C1.7299607,18.5812685 1.67791761,18.7033194 1.68309324,20.9557878 C1.68353626,21.1518287 1.68353626,21.1518287 1.68368407,21.3614364 L1.53368407,21.5114364 L0.00358604958,21.5114364 L-0.14641395,21.3614364 C-0.14641395,21.2135156 -0.146898611,21.0898033 -0.148204799,20.8473284 C-0.164684109,17.7881811 0.181468734,16.9929443 2.40063289,16.4527785 Z M24.2518997,21.5114364 L22.7067617,21.5114364 L22.5567617,21.3614364 C22.5567617,19.6563449 22.5655716,19.8066266 22.4215164,19.6748152 C22.3015212,19.5650189 20.7962454,19.1947067 20.5426496,19.117492 C19.0876547,18.676916 18.1968805,18.0880757 17.7561639,17.0836668 C17.4072663,16.2905844 17.4130849,15.3490313 17.9481164,14.2966851 C19.0346295,12.1608731 19.3367385,10.3008864 18.7797471,9.33924779 C18.1999889,8.33648384 16.341537,8.3432978 15.762278,9.35692274 C15.4125058,9.96704651 15.3785869,10.7322956 15.6053767,11.6667915 C15.7314191,12.1861538 15.9253026,12.7218351 16.2170342,13.4042065 C16.2930695,13.582056 16.6019251,14.2824203 16.6717424,14.447386 C16.8267032,14.8135304 16.9188377,15.069267 16.9645852,15.2790243 L17.0042709,15.4609875 L15.1949959,15.4609875 L15.0568343,15.3693945 C14.9570325,15.1333135 14.5425385,14.2349464 14.532464,14.2125281 C13.9310086,12.8741342 13.6428616,11.8423353 13.6428616,10.5916374 C13.6428616,8.18912519 15.1240892,6.69035911 17.2784325,6.69035911 C20.7740481,6.69035911 22.1024696,10.2322389 19.5816399,15.1840948 C19.2117606,15.9122691 19.3196062,16.3907029 19.8525001,16.7644105 C20.295256,17.0749062 20.895967,17.270871 22.1907089,17.5830216 C22.3158587,17.6131411 22.3158587,17.6131411 22.4419457,17.6434263 C24.0535482,18.0318145 24.404225,18.6936852 24.4042243,20.6140673 L24.401899,21.3619028 L24.2518997,21.5114364 Z" id="Shape" fill="#4A4A4A" fill-rule="nonzero"></path>
    </g>
</svg>