<?xml version="1.0" encoding="UTF-8"?>
<svg width="26px" height="20px" viewBox="0 0 26 20" version="1.1" xmlns="http://www.w3.org/2000/svg" xmlns:xlink="http://www.w3.org/1999/xlink">
    <!-- Generator: Sketch 52.1 (67048) - http://www.bohemiancoding.com/sketch -->
    <title>ic_p_pasienter</title>
    <desc>Created with Sketch.</desc>
    <g id="Page-1" stroke="none" stroke-width="1" fill="none" fill-rule="evenodd" opacity="0.667015439">
        <g id="Hovedskjerm-Copy-37" transform="translate(-13.000000, -1482.000000)" fill="#4A4A4A" fill-rule="nonzero">
            <g id="ic_p_pasienter" transform="translate(13.000000, 1481.902344)">
                <path d="M3.28000296,15.2370866 C5.91600203,14.5957391 8.36921703,14.0342574 7.18169543,11.6721622 C3.56395053,4.4830188 6.22179171,0.638563579 10.0418636,0.638563579 C13.9366586,0.638563579 16.5289734,4.63064975 12.9020318,11.6733722 C11.6777235,14.0499886 14.2229053,14.6102601 16.8025747,15.2382967 C19.0845015,15.7925178 19.2373963,16.9663049 19.2373963,18.9980457 L19.2339476,20 L17.7061487,20 C17.7061487,17.4721225 17.8015643,17.1357175 16.2967572,16.7702704 C14.1113955,16.2402511 12.0490395,15.7392739 11.2949116,13.9822235 C11.0201607,13.340876 10.8408254,12.2856777 11.5547179,10.9049652 C13.1319489,7.84101793 13.530855,5.18608096 12.6456743,3.62385506 C11.6087484,1.78814887 8.48762432,1.79782958 7.45874548,3.59723308 C6.57586398,5.13767737 6.96902215,7.80713541 8.53475731,10.9182762 C9.23255558,12.3050391 9.04862194,13.3578172 8.77157188,13.9955345 C8.01284559,15.7441143 5.92979705,16.2499318 3.72489247,16.7847915 C2.28561169,17.1357175 2.37757851,17.4963243 2.37757851,20 L0.847480495,20 C0.847480495,17.3426429 0.645153485,15.8784342 3.28000296,15.2370866 Z M25.0957942,20 L23.5506561,20 C23.5506561,17.6790478 23.7669057,18.3240257 21.4300152,17.6124929 C20.2511063,17.2555164 19.209388,16.737598 18.7373593,15.6618282 C18.4908813,15.1015566 18.324625,14.1855186 18.9257057,13.0032609 C20.0325315,10.8275195 20.3429542,8.92041801 19.7534998,7.90273251 C19.11754,6.8027609 17.114325,6.80397099 16.47604,7.92088385 C15.388979,9.81709453 17.3980072,12.7394613 17.6619247,13.9495511 L16.0388903,13.9495511 C15.5273322,12.7394613 14.636756,11.2776729 14.636756,9.23020099 C14.636756,6.79792054 16.1621293,5.47892268 18.122327,5.47892268 C21.0207687,5.47892268 23.0367728,8.36256662 20.2917984,13.7547267 C19.3919212,15.5262981 21.2521325,15.9474093 23.2506971,16.427815 C24.9830189,16.845296 25.0981194,17.7250312 25.0981194,19.2521645 L25.0957942,20 Z" id="Shape"></path>
            </g>
        </g>
    </g>
</svg>