<?xml version="1.0" encoding="UTF-8"?>
<svg width="24px" height="24px" viewBox="0 0 24 24" version="1.1" xmlns="http://www.w3.org/2000/svg" xmlns:xlink="http://www.w3.org/1999/xlink">
    <!-- Generator: Sketch 53.2 (72643) - https://sketchapp.com -->
    <title>ic_quattro</title>
    <desc>Created with Sketch.</desc>
    <g id="ic_quattro" stroke="none" stroke-width="1" fill="none" fill-rule="evenodd">
        <path d="M13.9124519,18.2909508 L12.2908623,19.9249499 C11.9649844,20.2531885 11.4926347,20.3682969 11.0610197,20.2253107 L7.68523609,19.1263857 C7.26748828,18.9878959 6.95114399,18.6290816 6.85667405,18.1830367 L6.35225657,15.8170205 L8.16798615,16.4123465 L8.34392558,17.2414864 C8.40719444,17.5364515 8.61606834,17.7738625 8.89254459,17.8664888 L10.723008,18.4564191 C11.0098846,18.5517432 11.3227621,18.475304 11.5394363,18.256778 L12.0949889,17.6965241 L13.9124519,18.2909508 Z M22.3852788,10.5661012 C22.1911387,5.53280856 20.0980662,2.65420044 18.4834102,3.2863971 C17.1261632,3.82147109 8.29019038,7.6227446 4.46112437,9.26663577 C4.18378143,9.38534126 3.93677287,9.43300332 3.71576521,9.43300332 C3.07787644,9.43300332 2.64972828,9.0400162 2.27964879,8.85206584 C1.33408269,10.138042 1.3834844,12.8026205 2.37585212,14.0472296 C2.75806536,13.7711494 3.21568122,13.3017231 3.90817188,13.3017231 C4.07717774,13.3017231 4.26091744,13.3296009 4.46199107,13.3952487 C8.30319083,14.6587427 17.6513814,17.7154091 19.0554301,18.1614539 C20.8364918,18.7271036 22.5785521,15.6047895 22.3852788,10.5661012 Z M4.98547588,11.6803141 C4.62579675,11.5616086 4.46025768,11.2126864 5.12328065,10.9285126 C5.12328065,10.9285126 13.7989146,7.20277897 16.543743,6.03820618 C15.5349081,8.75224532 15.6137775,12.7351742 16.8072188,15.5490339 C13.3759666,14.4303246 7.80137345,12.6065766 4.98547588,11.6803141 L4.98547588,11.6803141 Z M19.7739216,15.9330281 C19.6239831,16.1992162 19.264304,16.2342883 19.0701639,15.9977766 C17.2457674,13.7747465 17.0550941,7.90332121 18.7148183,5.603852 C18.8968246,5.35385104 19.2608372,5.3673403 19.4246429,5.62723338 C20.9812301,8.10206298 21.0566327,13.6515446 19.7739216,15.9330281 L19.7739216,15.9330281 Z" id="Shape" fill="#4A4A4A" fill-rule="nonzero"></path>
    </g>
</svg>