<?xml version="1.0" encoding="UTF-8"?>
<svg width="41px" height="41px" viewBox="0 0 41 41" version="1.1" xmlns="http://www.w3.org/2000/svg" xmlns:xlink="http://www.w3.org/1999/xlink">
    <!-- Generator: Sketch 52.1 (67048) - http://www.bohemiancoding.com/sketch -->
    <title>ic_road_camera_up</title>
    <desc>Created with Sketch.</desc>
    <defs>
        <path d="M20.5099739,5 L20.4900253,5 C11.9347172,5.00123888 4.99999989,11.2413812 5,18.9385584 C5,25.1686206 8.93733902,29.3706036 15.3258524,31.8383992 C16.2310164,32.2018382 17.3207043,32.7066146 17.8817564,33.1283833 C18.6796972,33.7251411 19.4851187,34.4206108 20.0087673,35.6320741 C20.0794164,35.8327104 20.2749569,35.9769705 20.5074803,36 C20.7400037,35.9769705 20.9355441,35.8327104 21.0061933,35.6320741 C21.4465298,34.6427399 22.1763652,33.7791203 23.1182428,33.1328702 C23.6792949,32.7111015 24.7689828,32.2063251 25.6741468,31.8428861 C32.0651537,29.3750905 35.9999992,25.1731075 35.9999992,18.9430453 C36.0013221,15.2459211 34.3700055,11.6997815 31.4649906,9.08488869 C28.5599756,6.46999593 24.6192775,5.00059487 20.5099739,5 Z" id="path-1"></path>
        <filter x="-6.5%" y="-3.2%" width="112.9%" height="111.7%" filterUnits="objectBoundingBox" id="filter-2">
            <feOffset dx="0" dy="1" in="SourceAlpha" result="shadowOffsetOuter1"></feOffset>
            <feGaussianBlur stdDeviation="0.5" in="shadowOffsetOuter1" result="shadowBlurOuter1"></feGaussianBlur>
            <feColorMatrix values="0 0 0 0 0   0 0 0 0 0   0 0 0 0 0  0 0 0 0.3 0" type="matrix" in="shadowBlurOuter1"></feColorMatrix>
        </filter>
        <polygon id="path-3" points="0.00525257227 0.00447622391 9.18948806 0.00447622391 9.18948806 6.40406026 0.00525257227 6.40406026"></polygon>
        <polygon id="path-5" points="0 0.00428399078 9.18898122 0.00428399078 9.18898122 6.39959202 0 6.39959202"></polygon>
    </defs>
    <g id="ic_road_camera_up" stroke="none" stroke-width="1" fill="none" fill-rule="evenodd">
        <g id="ic_icon_heart_map_up" fill-rule="nonzero">
            <circle id="Oval" fill="#DA0126" cx="20.5" cy="37.5" r="1.5"></circle>
            <path d="M20.5037257,8.69115062e-06 C15.0473471,-0.000584408257 9.83807907,1.94138597 5.99739982,5.39858302 C2.15672057,8.85578007 -0.000658736815,13.5449157 1.50879346e-07,18.4341306 C1.50879346e-07,26.6752675 5.2159691,32.2334515 13.6608712,35.4977108 C14.8555765,35.9784066 16.2961774,36.646909 17.038832,37.2036217 C18.091961,37.992857 19.1575089,38.9117684 19.8504877,40.5125969 C19.9394645,40.7767771 20.1941194,40.9682398 20.4987581,41 C20.8033968,40.9682398 21.0580517,40.7767771 21.1470285,40.5125969 C21.8424911,38.9117684 22.9055552,37.992857 23.9586842,37.2036217 C24.7038226,36.646909 26.1444235,35.9784066 27.3391288,35.4977108 C35.7840309,32.2334515 40.9999998,26.6752675 40.9999998,18.4341306 C41.0006616,13.5422025 38.840896,8.85069285 34.9964552,5.39304536 C31.1520143,1.93539787 25.938278,-0.00473848549 20.5037257,8.69115062e-06 Z" id="Shape" fill="#A7C4A5" opacity="0"></path>
            <g id="Shape">
                <use fill="black" fill-opacity="1" filter="url(#filter-2)" xlink:href="#path-1"></use>
                <use fill="#DA0126" xlink:href="#path-1"></use>
            </g>
        </g>
        <g id="Group-21" transform="translate(8.500000, 11.500000)">
            <path d="M10.3062618,9.30867034 C10.3067305,9.3514725 10.314199,9.39576349 10.3295127,9.44030951 C10.3948471,9.63028054 10.5079205,9.79569038 10.6022128,9.97039662 C10.7606811,10.2640032 10.9320287,10.5506788 11.0939444,10.8424701 C11.214078,11.0590376 11.3251934,11.2805834 11.4451891,11.4972059 C11.5763543,11.7340165 11.7143867,11.9670315 11.8469584,12.2030995 C11.9273233,12.3462035 12.0284275,12.4880698 12.195528,12.4989064 C12.3653312,12.509908 12.5294256,12.4380948 12.6225871,12.2747477 C12.7798971,11.9988813 12.9337046,11.7210621 13.086988,11.4429403 C13.2578668,11.1329412 13.4255189,10.8211819 13.5963977,10.5111553 C13.7846236,10.1696365 13.9821988,9.83298599 14.1621235,9.48717655 C14.2030273,9.40857959 14.2192846,9.33110366 14.2147699,9.26003853 C14.2827965,9.00315869 14.1034258,8.78315079 13.8127283,8.78886776 C13.2940233,8.79908182 12.7750122,8.79160468 12.2561124,8.79168932 C11.7279455,8.79168932 11.1998065,8.7910968 10.6716396,8.79194326 C10.3968089,8.7923638 10.2205606,9.04539449 10.3062618,9.30867034 Z M12.1763823,15 C11.8656992,14.7531698 11.7002278,14.4026189 11.5198402,14.061605 C11.3459923,13.7329495 11.1659664,13.4076516 10.9876103,13.0814508 C10.8186325,12.7723769 10.6482911,12.4640649 10.4786176,12.155386 C10.3042966,11.8382707 10.1284729,11.5219736 9.95629482,11.203645 C9.77955275,10.8769082 9.60845996,10.5470394 9.43118914,10.2206129 C9.25622813,9.89844695 9.07528387,9.57963868 8.89948799,9.25795241 C8.72808909,8.94422296 8.559,8.62916736 8.39066229,8.31374497 C8.3207558,8.18273985 8.24289022,8.05670069 8.19352155,7.91384501 C8.12483954,7.71515063 8.24275108,7.51693591 8.4509121,7.50206628 C8.49705261,7.49876505 8.54361055,7.50068372 8.58997369,7.50068372 C11.0382591,7.5006555 13.4865445,7.50062728 15.9348298,7.50082479 C15.99046,7.50082479 16.0469529,7.49710033 16.1014978,7.50548037 C16.3057628,7.53682792 16.4115409,7.76672878 16.3068481,7.97964383 C16.1884635,8.22037949 16.0616745,8.45798321 15.9219728,8.68652972 C15.7945716,8.89490206 15.6972535,9.11924444 15.5697132,9.32654458 C15.4124236,9.58212165 15.2942616,9.85914259 15.1360536,10.1148607 C15.013105,10.3136116 14.930926,10.5383207 14.8075878,10.7368176 C14.6051039,11.0625669 14.4527122,11.4156007 14.2517032,11.7420837 C14.1291164,11.9412577 14.0356387,12.1585744 13.9225695,12.3640687 C13.7888232,12.6071463 13.647591,12.8457376 13.5249207,13.0952201 C13.4051446,13.3388619 13.2559811,13.5660259 13.1328099,13.8087084 C12.9597134,14.1497788 12.7742052,14.4853189 12.5589199,14.8018417 C12.4990319,14.8898744 12.4033557,14.9422144 12.3155274,15 L12.1763823,15 Z" id="Combined-Shape" fill="#FFFFFF"></path>
            <path d="M15.8872079,4.04557284 C15.9004711,4.03316664 15.91569,4.02179442 15.9330901,4.01161147 C16.0338336,3.95262962 16.1118277,4.00941128 16.1861349,4.07662971 C16.2127427,4.10069069 16.2552693,4.10669888 16.2859639,4.127516 C16.3384648,4.16317026 16.3656727,4.1150483 16.3952813,4.09445684 C16.4247184,4.07397821 16.4131722,4.04213196 16.3930235,4.00949591 C16.3587278,3.95401179 16.334235,3.89243486 16.307513,3.832635 C16.3063414,3.83001254 16.3051914,3.82741172 16.3040632,3.82483227 C16.2983207,3.80899471 16.2926189,3.79314424 16.2867985,3.77740574 C16.2802917,3.75981632 16.2745445,3.74314261 16.2695834,3.72731407 C16.2403367,3.60539408 16.2961514,3.54728925 16.4631581,3.4954992 C16.5534129,3.46748917 16.5859652,3.41987494 16.5218894,3.33550637 C16.5156741,3.32732096 16.5093695,3.31926458 16.5029637,3.31133858 C16.4992237,3.29292134 16.4902994,3.27216663 16.4755818,3.24875186 C16.4258067,3.16965175 16.3695642,3.10183023 16.2988774,3.04648716 C16.0786889,2.87400873 15.8232198,2.855831 15.5794774,2.85721083 C15.3459769,2.85856066 15.1047761,2.87925807 14.876384,2.96867689 C14.8258605,2.98847898 14.7526161,2.98253687 14.7439833,3.06020639 C14.7311814,3.0640298 14.7184117,3.06800355 14.7056771,3.07213312 C14.642573,3.09258354 14.54826,3.08378281 14.5546333,3.18248078 C14.5612352,3.2839713 14.4968165,3.40619431 14.6530618,3.47118435 C14.7889298,3.52768393 14.8158804,3.64908893 14.7438596,3.77641749 C14.7233107,3.81274873 14.6868144,3.84098442 14.6696952,3.87830291 C14.639315,3.94450587 14.5691518,4.01155505 14.6497466,4.08805374 C14.7254542,4.1599264 14.7725536,4.09499278 14.8295415,4.05307646 C14.8951108,4.12327784 14.936086,4.05572676 14.9854465,4.01185642 C15.0049551,3.99451629 15.0232391,3.97953506 15.0404304,3.96695773 C15.1054895,3.97855618 15.1519252,4.04699556 15.1971339,4.17718938 C15.2380314,4.29487099 15.2213695,4.40736242 15.1324008,4.48876921 C15.1248049,4.49572142 15.1170606,4.50161653 15.1091902,4.50655784 C15.0781741,4.49576724 15.0471398,4.47817136 15.0174556,4.4613802 C15.0061568,4.454991 14.9943044,4.44929171 14.9841128,4.44086277 C14.9340356,4.39922798 14.8695392,4.39205887 14.8320694,4.43408362 C14.8275597,4.43914848 14.8230707,4.4446222 14.8186721,4.4504438 C14.7633274,4.41677966 14.6956041,4.41274148 14.6553482,4.45012496 C14.6073914,4.49472099 14.5614924,4.57305316 14.5827271,4.63798678 C14.6549766,4.85862569 14.7369147,5.07198708 14.9663527,5.19677697 C15.0517864,5.24326295 15.1383544,5.27422407 15.2261589,5.29323498 C15.3962773,5.3668609 15.5715962,5.3684546 15.7531118,5.34009031 C15.9622982,5.30740019 16.1266603,5.19313182 16.2355014,5.01152024 C16.3034737,4.92341934 16.3538424,4.81737708 16.3847926,4.695389 C16.4073705,4.6063944 16.4419806,4.50318323 16.364501,4.44815044 C16.3573401,4.44306205 16.34984,4.43926777 16.3420624,4.436588 C16.3404315,4.43500996 16.3387368,4.43346487 16.3369763,4.43195388 C16.279375,4.38252007 16.1968357,4.44797188 16.1309553,4.48261755 C15.952741,4.57635582 15.8466982,4.49686576 15.8459433,4.26409488 C15.8435296,4.18323233 15.8529584,4.10678283 15.8872079,4.04557284 Z M8.66796613,4.4547499 C8.66102426,4.45090098 8.65401928,4.44725 8.6468947,4.4439781 C8.56008865,4.40408148 8.48490381,4.44606778 8.475649,4.5324853 C8.44912024,4.52708635 8.41990562,4.5185229 8.38787355,4.50687841 C8.35252044,4.4940158 8.31988241,4.47390387 8.2846722,4.46053352 C8.16235101,4.4140758 8.06035,4.48594846 8.09650335,4.6090459 C8.16040759,4.82658199 8.2319712,5.0426795 8.45217791,5.17198259 C8.63575541,5.27976137 8.82388405,5.3229224 9.01877678,5.31754947 C9.19151399,5.37534393 9.36955949,5.36687915 9.5551452,5.31154037 C9.80220927,5.23788169 9.98094503,5.07917908 10.0603216,4.78190082 C10.0911008,4.66666644 10.1275174,4.52625833 10.0567228,4.44127448 C10.0029622,4.3767104 9.93252188,4.40428373 9.86496247,4.44108362 C9.79434837,4.3947563 9.70421182,4.44066986 9.62311975,4.47866133 C9.61156145,4.46771145 9.60123508,4.45384824 9.59214064,4.43694869 C9.54141236,4.342666 9.54269996,4.10151964 9.59413323,3.99678736 C9.63424774,4.02023625 9.67299969,4.0513656 9.71302926,4.0728217 C9.72060288,4.07688358 9.72383239,4.08819478 9.73092016,4.09389269 C9.78444997,4.13682447 9.83286401,4.12139498 9.88413602,4.08543044 C9.90148787,4.07326228 9.91161532,4.06098857 9.91667226,4.04866168 C9.91781265,4.05046974 9.91904255,4.05212949 9.92044366,4.05348496 C9.96758138,4.09920622 10.0102142,4.0827742 10.0553637,4.04450293 C10.1106807,3.99761011 10.0826447,3.94924531 10.0612025,3.90205209 C10.0275291,3.82797285 9.98582743,3.75857988 9.95675958,3.68218754 C9.92039332,3.58650936 9.92570355,3.46827096 10.0032681,3.42807711 C10.123994,3.3654432 10.1060248,3.24110663 10.1330793,3.13608593 C10.1515519,3.06440991 10.1245226,3.0074536 10.0626118,2.98393209 C10.0149204,2.96581782 9.96619719,2.94914549 9.91684478,2.93998321 C9.61816327,2.8844388 9.32048845,2.82664137 9.01526353,2.87560697 C8.87868564,2.89752854 8.74771813,2.92558774 8.63133449,2.99799249 C8.42000101,3.03009218 8.22384359,3.08385841 8.06980989,3.25407137 C7.93074099,3.40780214 7.93042661,3.42221616 8.11730938,3.51112614 C8.21811004,3.55907886 8.29821898,3.61258845 8.24314587,3.7598597 C8.2123941,3.8420563 8.15420579,3.91167236 8.13905854,4.00077979 C8.13088474,4.04890176 8.11293668,4.09304646 8.16000748,4.12808015 C8.21056499,4.16576535 8.24849028,4.11950508 8.288902,4.10241135 C8.30925075,4.09380807 8.32085412,4.06681351 8.34057412,4.05476891 C8.39520007,4.02145454 8.45040089,3.98788798 8.51314771,3.98907166 C8.50725021,4.02677237 8.50524653,4.06121962 8.53711641,4.08992378 C8.5808459,4.12932233 8.61380691,4.08256657 8.64866584,4.06361816 C8.67217924,4.10447818 8.67744218,4.15533671 8.69044701,4.20113753 C8.69910666,4.23162981 8.691876,4.26652247 8.691876,4.29941239 C8.69162635,4.36490402 8.68398422,4.41647523 8.66796613,4.4547499 Z M14.2102203,4.43958448 C14.1645359,4.41874656 14.0991479,4.42774042 14.01139,4.47996847 C13.9872973,4.49429787 13.9596036,4.503832 13.9324243,4.51187113 C13.9183385,4.51602692 13.9046936,4.51921883 13.8915165,4.52146855 C13.8305639,4.49367156 13.7934309,4.42420024 13.7878696,4.32010744 C13.783876,4.24523486 13.7933276,4.17436061 13.8200585,4.10517456 C13.8403699,4.05261024 13.8695877,4.01458694 13.903934,3.992751 C13.9345722,3.99967482 13.9660275,4.01492004 13.9969001,4.03902914 C14.0382835,4.07135491 14.0850685,4.09138222 14.1268806,4.11944866 C14.1721728,4.14986153 14.1972872,4.13259149 14.2224954,4.11056757 C14.2765048,4.14960853 14.2992704,4.10518991 14.3324983,4.07697887 C14.3765617,4.0395722 14.3438669,4.01359781 14.3260552,3.98131493 C14.3056076,3.94429329 14.2938397,3.90128894 14.2729395,3.86468193 C14.1545674,3.65762726 14.168066,3.5774828 14.3424292,3.44065079 C14.3636488,3.42397624 14.3930688,3.40608737 14.3794903,3.35867005 C14.3258954,3.17137013 14.2495899,3.01407255 14.0622607,2.95045455 C13.6979324,2.82674301 13.3331782,2.83201489 12.9676252,2.93108482 C12.9231133,2.94316129 12.8807207,2.96074594 12.841884,2.98426804 C12.8220979,2.98856937 12.8023097,2.9931024 12.7825194,2.99786282 C12.6468229,3.03049888 12.529446,3.10550257 12.465799,3.23215416 C12.4252729,3.31277114 12.3503941,3.41615155 12.4623694,3.49090138 C12.6284175,3.60167215 12.6498809,3.67362943 12.5430499,3.83418641 C12.4920066,3.91091076 12.3920919,4.00591356 12.464913,4.087546 C12.5256736,4.15566033 12.5969736,4.1078605 12.6622484,4.0614042 C12.6649857,4.06605977 12.6681507,4.07068041 12.6717749,4.07526107 C12.7431283,4.16541618 12.830057,4.0621406 12.9017032,4.01211694 C12.9037946,4.01065685 12.9058835,4.00923442 12.9079699,4.00784992 C12.9252283,4.01679665 12.9421294,4.0289594 12.9586276,4.04450139 C13.0405656,4.12173347 13.0574562,4.36437422 12.9919801,4.45776919 C12.9739918,4.48342393 12.951139,4.50198198 12.9239779,4.51342459 C12.9005294,4.50402719 12.8759271,4.49180487 12.8502915,4.47675344 C12.8425172,4.47219237 12.8342902,4.46860867 12.8265692,4.46389952 C12.7513425,4.41825233 12.6930787,4.4201539 12.6573867,4.47039515 C12.6482233,4.46561087 12.6393636,4.46216955 12.631104,4.45771277 C12.5141844,4.39478188 12.4354759,4.42671275 12.4131551,4.5558748 C12.3853185,4.71691131 12.442678,4.863562 12.5347904,4.98916991 C12.6710647,5.17494188 12.8487284,5.27429679 13.0494014,5.30098754 C13.1637065,5.35189262 13.2898186,5.36714564 13.422716,5.35096782 C13.5725581,5.35777981 13.7031242,5.34311923 13.8351812,5.32262405 C14.0734163,5.28566164 14.3557414,4.96715699 14.3744051,4.69722475 C14.3859832,4.5296198 14.337983,4.40561157 14.2102203,4.43958448 Z M12.0593382,4.45401759 C11.985031,4.38076276 11.8863452,4.45573825 11.8028353,4.49613136 C11.7867856,4.5038939 11.7704776,4.51016208 11.7541725,4.51497246 C11.7219052,4.49478773 11.6982236,4.46274118 11.6892594,4.41980752 C11.6690584,4.32314902 11.6609252,4.21657607 11.7040207,4.11754994 C11.725621,4.06791965 11.7530247,4.03086143 11.7843014,4.00705907 C11.8041164,4.01563636 11.8241439,4.027276 11.8441615,4.04204734 C11.8738273,4.06390814 11.8992632,4.09349778 11.9318155,4.10892727 C11.9718843,4.12791091 12.012096,4.14503285 12.058195,4.10176257 C12.0624694,4.09775107 12.0662133,4.09382779 12.0694704,4.08998084 C12.0751093,4.09428531 12.0809305,4.09817172 12.0870214,4.10145006 C12.1240434,4.12136775 12.161171,4.13933214 12.2037912,4.09396243 C12.2495009,4.04524844 12.2295639,4.00893491 12.2063526,3.96566647 C12.1704661,3.89881052 12.1334177,3.83266486 12.0994324,3.76462509 C12.041919,3.64952867 12.0587399,3.52034485 12.16059,3.47583341 C12.2844104,3.42170346 12.261199,3.33490023 12.2287718,3.24336173 C12.1824018,3.11240219 12.0952338,3.00748658 11.9790714,2.96560912 C11.5954802,2.82725738 11.2065811,2.81954766 10.8200401,2.95233591 C10.729345,2.96784252 10.6386894,2.98953046 10.5481571,3.01749523 C10.3763645,3.0705535 10.2764498,3.19387661 10.2433831,3.36783214 C10.2337517,3.41866202 10.230808,3.46511974 10.2947694,3.49690957 C10.443041,3.57058751 10.4644757,3.67317812 10.3712773,3.8111127 C10.3505856,3.84174602 10.3325518,3.87438207 10.3158612,3.90735662 C10.2819085,3.97446221 10.2325799,4.05127118 10.3078875,4.11146595 C10.3816231,4.17041958 10.4304373,4.09414655 10.4866536,4.0539509 C10.5070718,4.03935192 10.5282919,4.02604231 10.5503907,4.01538923 C10.5480645,4.0467298 10.5567185,4.07704393 10.5865745,4.10414324 C10.6547034,4.16599758 10.6998058,4.08594208 10.7517211,4.04379827 C10.7578382,4.03883092 10.7640329,4.03400622 10.7703076,4.02937293 C10.819339,4.07238862 10.8189896,4.14167333 10.8317251,4.20094008 C10.8432999,4.25487278 10.8355548,4.31320585 10.8337257,4.36947977 C10.8319341,4.42465782 10.8167223,4.46691491 10.7888953,4.4938068 C10.7617492,4.48099992 10.7347256,4.46748124 10.7074109,4.4557955 C10.6476444,4.43022951 10.5842474,4.44740337 10.5419217,4.48905483 C10.5074569,4.475122 10.4732784,4.45969486 10.4386683,4.44665544 C10.3198338,4.40189017 10.1877669,4.49457995 10.2081443,4.61688758 C10.242297,4.82161748 10.3292651,4.99605254 10.4963135,5.13652579 C10.6333761,5.25180308 10.7854192,5.28952338 10.9443458,5.30041433 C11.0806934,5.35691197 11.2272029,5.35786165 11.3766322,5.35475504 C11.442543,5.35475504 11.5089819,5.36076291 11.5742853,5.35371921 C11.8824498,5.32057239 12.1494993,5.13207944 12.2400209,4.78057515 C12.2707054,4.66139457 12.274059,4.54100059 12.2048474,4.46354949 C12.1622149,4.41580549 12.1108974,4.42803932 12.0596449,4.45432058 Z M12.3487364,0 C12.4337325,0.0401110373 12.4476508,0.101970042 12.4380766,0.193841806 C12.4153558,0.412421573 12.4360475,0.42768182 12.6558826,0.430135871 C12.8531398,0.432336054 12.9266183,0.526887529 12.8617709,0.7058922 C12.8333913,0.784196166 12.7567405,0.788483703 12.683062,0.790260775 C12.4567678,0.795620196 12.4567963,0.796381798 12.4565391,1.01995429 C12.456482,1.07636925 12.4584254,1.13284063 12.4561962,1.18917096 C12.4514805,1.30764238 12.4768021,1.3834923 12.6053823,1.4524878 C13.0081276,1.66864172 13.038022,2.17321713 12.7871779,2.44149848 C12.7840055,2.44485517 12.7817763,2.44917091 12.7796042,2.4532892 C12.7422505,2.52440026 12.6321901,2.58295899 12.6920646,2.67175614 C12.7517104,2.76029942 12.8428797,2.68447772 12.9224742,2.67068426 C13.3121301,2.60312734 13.702872,2.54400446 14.0945284,2.65931664 C14.1307961,2.66997907 14.1768951,2.67759509 14.1983299,2.70309465 C14.3243093,2.85313024 14.4713234,2.79485359 14.6228816,2.76035584 C14.9944751,2.67578981 15.3679548,2.56143668 15.7515804,2.60614554 C16.2129999,2.65993721 16.61263,2.80230036 16.8161462,3.31773565 C16.917004,3.57306977 16.8122879,3.77576872 16.7710474,4.00049772 C16.6953683,4.41303212 16.5550991,4.81047552 16.4825923,5.22444851 C16.4445813,5.44153328 16.3631577,5.6508892 16.3140578,5.86653539 C16.2812197,6.01078844 16.2540689,6.15540819 16.2113994,6.29802522 C16.1845059,6.38792246 16.1416363,6.42470501 16.0554113,6.4276668 C16.0173431,6.42896434 15.9792178,6.42848481 15.941121,6.42848481 C13.4934398,6.42851302 11.04573,6.42854123 8.59802021,6.42848481 C8.35357789,6.42848481 8.34477534,6.42340747 8.28701573,6.19484225 C8.10001865,5.45476259 7.90964916,4.71544452 7.73185475,3.97319288 C7.6899283,3.79813725 7.64025675,3.61941466 7.6744381,3.43172208 C7.74548727,3.0414998 8.07252496,2.73468703 8.48098627,2.64653865 C8.65920938,2.60809186 8.83423156,2.59804999 9.01194024,2.60267602 C9.27878905,2.60958685 9.5374069,2.67378708 9.79282383,2.74357239 C9.8819068,2.76794365 9.98099268,2.74983445 10.0629307,2.81499373 C10.1019706,2.84605016 10.1532712,2.80506469 10.192454,2.77987541 C10.4719636,2.60027839 10.7851116,2.53478062 11.1065762,2.57878429 C11.2926588,2.60428385 11.491545,2.60078612 11.6663385,2.69463241 C11.7139524,2.72016018 11.7712833,2.71790358 11.8188399,2.69872249 C11.8717981,2.67739764 11.9163539,2.65023383 11.8613094,2.57452496 C11.7635382,2.44011631 11.652706,2.31967037 11.5948035,2.15076398 C11.5209821,1.93548448 11.7152956,1.53595373 11.9228129,1.45147233 C12.0401327,1.40371706 12.0785152,1.33427024 12.0672548,1.21678609 C12.0591953,1.13292525 12.0589095,1.04706168 12.0672262,0.963257253 C12.0810588,0.823827677 12.0192409,0.773872228 11.8846876,0.789386343 C11.7639954,0.803264423 11.6780562,0.768907712 11.6700539,0.63043719 C11.6616801,0.48545074 11.7070932,0.435213217 11.8564222,0.430276908 C12.0623105,0.423450698 12.0683123,0.423225038 12.0603385,0.216351376 C12.0564231,0.114465956 12.0880323,0.0457525334 12.1772581,0 L12.3487364,0 Z" id="Combined-Shape" fill="#FFFFFF"></path>
            <g id="Group-7" transform="translate(14.304348, 7.500000)">
                <mask id="mask-4" fill="white">
                    <use xlink:href="#path-3"></use>
                </mask>
                <g id="Clip-6"></g>
                <path d="M6.11138749,0.00675294889 C7.06692691,0.00675294889 8.02249159,0.00669397117 8.97805626,0.00692988204 C9.02009353,0.0069593709 9.06344446,0.00253604194 9.10386491,0.012827654 C9.1804364,0.0323197903 9.21701691,0.0854292267 9.16558189,0.171831586 C9.02956707,0.400370249 8.86452533,0.599655963 8.69066687,0.788443644 C8.64092446,0.842437746 8.57031498,0.823269987 8.50789065,0.823269987 C7.05982806,0.823771298 5.61179074,0.823653342 4.16370288,0.823889253 C4.117472,0.823889253 4.07060954,0.821766055 4.02511127,0.829433159 C3.96703214,0.839193971 3.93843467,0.882454128 3.94166831,0.953463303 C3.94480089,1.02246723 3.96804265,1.0646363 4.0331701,1.06389908 C4.08783875,1.06327982 4.14253267,1.06764417 4.19722659,1.06764417 C5.50217553,1.06788008 6.80709921,1.0678211 8.11204814,1.06785059 C8.15832956,1.06785059 8.2046615,1.06681848 8.25094291,1.06829292 C8.30457579,1.07000328 8.3671517,1.05455111 8.39873018,1.12243447 C8.43483069,1.19999017 8.36548436,1.2382962 8.33547218,1.28105505 C8.24025675,1.41699869 8.13048997,1.53902359 8.03529981,1.67499672 C7.96615558,1.77375491 7.88341998,1.79498689 7.78082782,1.79472149 C6.72004366,1.79203801 5.6592595,1.79298165 4.59845008,1.79345347 C4.53607627,1.79348296 4.46983726,1.7798886 4.4167349,1.83273263 C4.39003214,1.85927261 4.33814239,1.88480996 4.36158625,1.93219856 C4.38316066,1.97578309 4.39531206,2.04794233 4.46582048,2.0382405 C4.51144506,2.03192988 4.55828226,2.03832896 4.60458893,2.03832896 C5.5643725,2.03841743 6.5241308,2.03794561 7.4838891,2.03965596 C7.54330716,2.03974443 7.62260703,2.00810288 7.65264448,2.09544889 C7.68227772,2.18158585 7.62253124,2.24094692 7.57324356,2.29508847 C7.44839489,2.43230013 7.34734377,2.59472477 7.22486981,2.73553408 C7.1328375,2.84136959 7.03363056,2.88521953 6.91052503,2.8850426 C6.31278238,2.88409895 5.71503972,2.88253604 5.11729707,2.88548493 C4.91979265,2.88645806 4.73724379,2.94505242 4.59784377,3.12381389 C4.50613988,3.24138598 4.46993831,3.37491153 4.51687656,3.53061271 C4.57043365,3.70837156 4.62090869,3.88748689 4.67817941,4.06362385 C4.75593825,4.30289646 4.66524487,4.56528834 4.45932794,4.66050786 C4.3508243,4.7106979 4.23719231,4.7440498 4.11754778,4.74381389 C3.33457842,4.74219201 2.55160906,4.74611402 1.76869022,4.73862385 C1.62411133,4.73726737 1.50997409,4.75935452 1.43277103,4.91909567 C1.37378244,5.04103211 1.29764041,5.15152687 1.23276559,5.26980668 C1.16955812,5.38501966 1.16172665,5.51423984 1.15369309,5.64918087 C1.14070802,5.86739843 1.09106666,6.07732962 0.940247856,6.23093709 C0.725387906,6.44968545 0.278741943,6.50403342 0.0464506749,6.138519 C-0.0246640528,6.02660878 0.00181134138,5.68409567 0.0836374881,5.51966579 C0.288266012,5.10853211 0.487715665,4.69391874 0.689590546,4.28092726 C0.78020814,4.09558978 0.874918305,3.91281782 0.96172122,3.72509174 C1.02624236,3.58560944 1.12532299,3.54426606 1.25322845,3.54491481 C1.79200777,3.54768676 2.33086288,3.54606488 2.86966747,3.54603539 C2.92019303,3.54603539 2.97069333,3.54621232 3.02121889,3.54591743 C3.35299499,3.54400066 3.45639555,3.35677588 3.29534532,3.01709371 C3.06808135,2.53775229 2.83058595,2.06472149 2.58856851,1.59522936 C2.46260828,1.35094364 2.43974547,1.13405308 2.58541066,0.879151376 C2.70899618,0.66285059 2.80517159,0.422899738 2.92021829,0.19757536 C2.99302563,0.0549967235 3.09182836,0.00383355177 3.23211258,0.00448230668 C4.19187089,0.00884665793 5.15162919,0.00675294889 6.11138749,0.00675294889" id="Fill-5" fill="#FFFFFF" mask="url(#mask-4)"></path>
            </g>
            <g id="Group-10" transform="translate(0.000000, 7.500000)">
                <mask id="mask-6" fill="white">
                    <use xlink:href="#path-5"></use>
                </mask>
                <g id="Clip-9"></g>
                <path d="M3.09560515,0.00673820446 C4.05129614,0.00676769332 5.0070124,0.00918577982 5.96267813,0.0042906291 C6.11756424,0.00352391874 6.20424084,0.0691071429 6.27406716,0.234864024 C6.38001927,0.486403997 6.50691421,0.727092071 6.62764504,0.969755898 C6.74847692,1.21259666 6.6827179,1.40633847 6.57939313,1.61048984 C6.40932409,1.94663336 6.22978151,2.27614187 6.07714379,2.6244348 C6.01681627,2.76205931 5.93231227,2.88434961 5.86867532,3.02159076 C5.80978778,3.1485403 5.83020011,3.27752457 5.84687354,3.4039728 C5.85877231,3.49420872 5.92238399,3.53543414 6.00438698,3.53593545 C6.30736351,3.53776376 6.61031478,3.5440154 6.9132913,3.54563729 C7.2585072,3.54743611 7.60379889,3.55065039 7.94891374,3.54375 C8.0798002,3.54115498 8.16463262,3.60691514 8.22379805,3.7316825 C8.39391762,4.09041448 8.55138053,4.45817005 8.73569778,4.80663991 C8.85311918,5.02860256 8.93451586,5.27380242 9.07194539,5.48231815 C9.14086226,5.58685616 9.1752449,5.71808159 9.18615842,5.84567988 C9.21599376,6.19435616 9.00626216,6.36329784 8.70204775,6.39561763 C8.3025674,6.43808159 8.03442825,6.13655799 8.04117341,5.66898263 C8.04339654,5.5158175 8.01800744,5.38323558 7.93663602,5.25899902 C7.85925613,5.14086664 7.79837283,5.00819626 7.72720757,4.88431356 C7.67213471,4.78844528 7.60324311,4.737577 7.49279423,4.73872706 C6.85291326,4.74553899 6.21293124,4.74456586 5.573025,4.74064384 C5.34227476,4.73922837 5.10940245,4.77187254 4.88102691,4.71625655 C4.69913489,4.67196429 4.53793309,4.59086992 4.48642228,4.34531619 C4.45509643,4.19613204 4.5096893,4.0683863 4.54212671,3.9363057 C4.5751199,3.80186599 4.63006645,3.6750344 4.66932481,3.54239351 C4.72942496,3.33933322 4.64711882,3.11017529 4.48331495,3.01563401 C4.33176353,2.92814056 4.1739722,2.88107634 4.00168004,2.88275721 C3.44178103,2.88827163 2.88178097,2.88234436 2.3218567,2.8862074 C2.14044467,2.88744594 1.99937731,2.82038827 1.88865054,2.64395642 C1.80230235,2.50639089 1.69347029,2.3880521 1.59438967,2.26139744 C1.557986,2.21486402 1.50655098,2.17281291 1.53196534,2.09858945 C1.55846599,2.0211517 1.62253241,2.03928735 1.67502846,2.03922837 C2.64754447,2.03828473 3.62008574,2.03846166 4.59262701,2.03825524 C4.63468954,2.03825524 4.67710575,2.03984764 4.71876407,2.03459862 C4.77563059,2.02743283 4.8171626,1.98744594 4.81547,1.9208306 C4.81377739,1.8541268 4.78565991,1.79874672 4.71505044,1.79856979 C4.66457541,1.79842235 4.6141509,1.79337975 4.56370112,1.79335026 C3.51539677,1.7929964 2.46706716,1.79155144 1.41876282,1.79494266 C1.2856027,1.79538499 1.18912414,1.75268512 1.10914218,1.61892366 C1.02807391,1.48339286 0.921944971,1.36815039 0.825820091,1.2450344 C0.799673113,1.21156455 0.771429324,1.17921527 0.785601744,1.12961501 C0.802350968,1.07105013 0.847697659,1.07096166 0.890038079,1.06886796 C0.919469219,1.06739351 0.948976147,1.06792431 0.978432549,1.06792431 C2.3214525,1.06786533 3.66449771,1.06898591 5.00751765,1.064769 C5.08136076,1.06453309 5.16902261,1.1346576 5.23420059,1.01791121 C5.28813662,0.92133519 5.28371564,0.868166776 5.18847495,0.837262451 C5.14103145,0.821869266 5.08858592,0.824198886 5.03836351,0.824198886 C3.5943177,0.82357962 2.15024663,0.821780799 0.706175561,0.826705439 C0.567533421,0.827177261 0.461833946,0.78194135 0.374273149,0.66065367 C0.263470592,0.507164155 0.149788079,0.356476081 0.0376465958,0.204284076 C0.00909965361,0.165565203 -0.0127273889,0.122776868 0.00849334687,0.0703751638 C0.0293856665,0.0187696592 0.0712966197,0.00880242464 0.114874916,0.00785878113 C0.178006605,0.00650229358 0.241163557,0.00676769332 0.304320509,0.00676769332 C1.23474872,0.0067087156 2.16517694,0.00673820446 3.09560515,0.00673820446" id="Fill-8" fill="#FFFFFF" mask="url(#mask-6)"></path>
            </g>
        </g>
    </g>
</svg>