<?xml version="1.0" encoding="UTF-8"?>
<svg width="24px" height="24px" viewBox="0 0 24 24" version="1.1" xmlns="http://www.w3.org/2000/svg" xmlns:xlink="http://www.w3.org/1999/xlink">
    <!-- Generator: Sketch 53.2 (72643) - https://sketchapp.com -->
    <title>ic_evakuering copy 14</title>
    <desc>Created with Sketch.</desc>
    <g id="ic_evakuering-copy-14" stroke="none" stroke-width="1" fill="none" fill-rule="evenodd">
        <path d="M18.2467949,21.1666667 L20.0096154,21.1666667 L20.0096154,10.2299167 C18.9871795,9.53966667 17.7928686,8.84666667 16.6470353,8.34891667 C16.9370192,7.85025 17.1529647,7.259 17.2613782,6.62833333 C18.8664263,7.31583333 20.3454327,8.23525 21.7724359,9.25 L21.7724359,21.1666667 L22.6538462,21.1666667 L22.6538462,23 L1.5,23 L1.5,21.1666667 L2.38141026,21.1666667 L2.38141026,9.25 C3.80488782,8.25633333 5.28830128,7.34333333 6.89599359,6.65583333 C7.01674679,7.2645 7.23709936,7.84108333 7.53766026,8.36358333 C6.33894231,8.87966667 5.23365385,9.525 4.15392628,10.2335833 L4.14423077,10.24 L4.14423077,21.1666667 L5.90705128,21.1666667 L5.90705128,16.5833333 L18.2467949,16.5833333 L18.2467949,21.1666667 Z M7.66987179,22.0833333 L10.3141026,22.0833333 L10.3141026,18.4166667 L7.66987179,18.4166667 L7.66987179,22.0833333 Z M11.1955128,22.0833333 L12.9583333,22.0833333 L12.9583333,18.4166667 L11.1955128,18.4166667 L11.1955128,22.0833333 Z M13.8397436,22.0833333 L16.4839744,22.0833333 L16.4839744,18.4166667 L13.8397436,18.4166667 L13.8397436,22.0833333 Z M5.90705128,15.6666667 L7.66987179,15.6666667 L7.66987179,13.8333333 L5.90705128,13.8333333 L5.90705128,15.6666667 Z M9.43269231,15.6666667 L11.1955128,15.6666667 L11.1955128,13.8333333 L9.43269231,13.8333333 L9.43269231,15.6666667 Z M12.9583333,15.6666667 L14.7211538,15.6666667 L14.7211538,13.8333333 L12.9583333,13.8333333 L12.9583333,15.6666667 Z M16.4839744,15.6666667 L18.2467949,15.6666667 L18.2467949,13.8333333 L16.4839744,13.8333333 L16.4839744,15.6666667 Z M5.90705128,12.9166667 L7.66987179,12.9166667 L7.66987179,11.0833333 L5.90705128,11.0833333 L5.90705128,12.9166667 Z M9.43269231,12.9166667 L11.1955128,12.9166667 L11.1955128,11.0833333 L9.43269231,11.0833333 L9.43269231,12.9166667 Z M12.9583333,12.9166667 L14.7211538,12.9166667 L14.7211538,11.0833333 L12.9583333,11.0833333 L12.9583333,12.9166667 Z M16.4839744,12.9166667 L18.2467949,12.9166667 L18.2467949,11.0833333 L16.4839744,11.0833333 L16.4839744,12.9166667 Z M12.0769231,1 C14.5096154,1 16.4839744,3.05333333 16.4839744,5.58333333 C16.4839744,8.11333333 14.5096154,10.1666667 12.0769231,10.1666667 C9.64423077,10.1666667 7.66987179,8.11333333 7.66987179,5.58333333 C7.66987179,3.05333333 9.64423077,1 12.0769231,1 L12.0769231,1 Z M12.9583333,4.66666667 L12.9583333,2.83333333 L11.1955128,2.83333333 L11.1955128,4.66666667 L9.43269231,4.66666667 L9.43269231,6.5 L11.1955128,6.5 L11.1955128,8.33333333 L12.9583333,8.33333333 L12.9583333,6.5 L14.7211538,6.5 L14.7211538,4.66666667 L12.9583333,4.66666667 Z" id="Shape" fill="#4A4A4A"></path>
    </g>
</svg>