<?xml version="1.0" encoding="UTF-8"?>
<svg width="21px" height="33px" viewBox="0 0 21 33" version="1.1" xmlns="http://www.w3.org/2000/svg" xmlns:xlink="http://www.w3.org/1999/xlink">
    <!-- Generator: Sketch 52.1 (67048) - http://www.bohemiancoding.com/sketch -->
    <title>ic_s_brann</title>
    <desc>Created with Sketch.</desc>
    <g id="Page-1" stroke="none" stroke-width="1" fill="none" fill-rule="evenodd" opacity="0.67015439">
        <g id="Hovedskjerm-Copy-37" transform="translate(-15.000000, -1260.000000)" fill="#4A4A4A" fill-rule="nonzero">
            <g id="ic_s_brann" transform="translate(15.750000, 1260.773438)">
                <path d="M18.75,32 L1.25,32 L1.25,29.3333333 L18.75,29.3333333 L18.75,32 Z M7.96875,5.716 C9.6825,8.83333333 9.72625,14.5826667 8.39875,16.9786667 C11.60125,16.5626667 14.7925,13.1946667 15.49125,10.9346667 C16.795,12.8533333 17.5,15.1266667 17.5,17.556 C17.5,19.628 16.4225,22.8373333 13.47625,24.4386667 C13.2025,22.584 12.07,20.564 10.17875,19.4173333 C8.37875,20.5426667 7.0575,23.0013333 6.69875,24.668 C5.15625,23.9373333 2.5,21.708 2.5,18.6666667 C2.5,14.292 5.88625,12.5533333 7.96875,5.716 Z M6.25,3.55271368e-15 C6.9275,8.38933333 0,11.2773333 0,18.6666667 C0,23.6853333 4.3625,27.2266667 8.75,28.0066667 C8.535,26.0626667 9.12125,24.188 10.2075,23.084 C11.27,24.1053333 11.7575,26.376 11.25,28.0013333 C16.085,27.0013333 20,22.8573333 20,17.5573333 C20,12.7226667 17.70875,8.16666667 13.38625,5.33333333 C14.14125,8.416 13.165,10.5413333 11.7975,11.8613333 C11.87625,7.96533333 10.35125,2.74933333 6.25,3.55271368e-15 Z" id="Shape"></path>
            </g>
        </g>
    </g>
</svg>