<?xml version="1.0" encoding="UTF-8"?>
<svg width="24px" height="24px" viewBox="0 0 24 24" version="1.1" xmlns="http://www.w3.org/2000/svg" xmlns:xlink="http://www.w3.org/1999/xlink">
    <!-- Generator: Sketch 53.2 (72643) - https://sketchapp.com -->
    <title>ic_skader</title>
    <desc>Created with Sketch.</desc>
    <g id="ic_skader" stroke="none" stroke-width="1" fill="none" fill-rule="evenodd">
        <path d="M20.1340417,3.94 C18.8301667,2.56833333 17.523125,2 16.4385417,2 C15.6698333,2.00083333 15.01275,2.28666667 14.5488333,2.775 L3.73704167,14.1558333 C3.27154167,14.645 3,15.3366667 3,16.145 C3,17.2866667 3.54070833,18.6625 4.84379167,20.0341667 C6.16429167,21.425 7.481625,22 8.57016667,22 C9.33808333,22 9.99120833,21.7141667 10.4543333,21.2266667 L21.2653333,9.84666667 C21.72925,9.35833333 22,8.67083333 22,7.8625 C22,6.71666667 21.45375,5.33083333 20.1340417,3.94 Z M19.0138333,5.11833333 C20.477625,6.65833333 20.689,8.09666667 20.1467083,8.66833333 L17.9070833,11.025 L13.428625,6.31083333 L15.6674583,3.95416667 C16.2113333,3.38166667 17.5674583,3.59666667 19.0138333,5.11833333 L19.0138333,5.11833333 Z M16.7876667,12.2033333 L12.6939583,16.5125 L8.2155,11.7983333 L12.3092083,7.48916667 L16.7876667,12.2033333 Z M5.96320833,18.8558333 C4.517625,17.3333333 4.31416667,15.905 4.85645833,15.3333333 L7.09608333,12.9766667 L11.5745417,17.6908333 L9.33491667,20.0483333 C8.792625,20.62 7.42541667,20.3966667 5.96320833,18.8558333 Z M11.661625,11.1175 C11.4296667,11.3616667 11.053625,11.3616667 10.8216667,11.1175 C10.5897083,10.8716667 10.5897083,10.4775 10.8216667,10.2333333 C11.053625,9.99 11.4296667,9.98916667 11.661625,10.2333333 C11.8935833,10.4783333 11.8935833,10.8741667 11.661625,11.1175 Z M14.1815,12.8858333 C13.9503333,12.6408333 13.5727083,12.6408333 13.34075,12.885 C13.1095833,13.1291667 13.1095833,13.525 13.3415417,13.77 C13.5727083,14.0116667 13.9495417,14.0141667 14.1815,13.77 C14.4126667,13.525 14.4126667,13.1291667 14.1815,12.8858333 Z M12.9219583,11.56 C12.69,11.315 12.312375,11.315 12.082,11.56 C11.8500417,11.8041667 11.8500417,12.1991667 12.082,12.4433333 C12.3139583,12.6883333 12.69,12.6883333 12.9219583,12.4433333 C13.153125,12.1983333 13.1539167,11.8041667 12.9219583,11.56 Z M12.7810417,9.9375 C12.5490833,10.1816667 12.1730417,10.1808333 11.9410833,9.9375 C11.709125,9.69333333 11.709125,9.2975 11.9410833,9.05333333 C12.1730417,8.80916667 12.5490833,8.80916667 12.7810417,9.05333333 C13.0122083,9.2975 13.013,9.69333333 12.7810417,9.9375 Z M15.300125,11.705 C15.0681667,11.4608333 14.692125,11.4616667 14.4601667,11.705 C14.2282083,11.9491667 14.2282083,12.345 14.4601667,12.5891667 C14.692125,12.8333333 15.0681667,12.8333333 15.300125,12.5891667 C15.5320833,12.3458333 15.5320833,11.9491667 15.300125,11.705 Z M14.041375,10.3791667 C13.8094167,10.1358333 13.4317917,10.1358333 13.200625,10.38 C12.9694583,10.6233333 12.9694583,11.0208333 13.200625,11.2641667 C13.433375,11.5075 13.8094167,11.5083333 14.041375,11.265 C14.27175,11.0191667 14.2733333,10.6233333 14.041375,10.3791667 L14.041375,10.3791667 Z M10.5422083,12.2966667 C10.31025,12.54 9.93420833,12.54 9.70225,12.2966667 C9.47029167,12.0525 9.47029167,11.6558333 9.70225,11.4125 C9.93420833,11.1683333 10.31025,11.1683333 10.5422083,11.4125 C10.7741667,11.6566667 10.7741667,12.0525 10.5422083,12.2966667 Z M13.0612917,14.0641667 C12.8285417,13.82 12.4532917,13.82 12.2213333,14.0641667 C11.989375,14.3083333 11.9901667,14.7041667 12.2213333,14.9483333 C12.4532917,15.1933333 12.830125,15.1933333 13.0612917,14.9483333 C13.29325,14.7033333 13.29325,14.3091667 13.0612917,14.0641667 Z M11.80175,12.7375 C12.0337083,12.9816667 12.0337083,13.3766667 11.80175,13.6216667 C11.5705833,13.8658333 11.19375,13.8658333 10.9617917,13.6216667 C10.7314167,13.3791667 10.7314167,12.9825 10.9617917,12.7375 C11.19375,12.4933333 11.571375,12.495 11.80175,12.7375 Z M17.25,18.1783333 L18.3694167,17 L20.60825,19.3575 L19.4888333,20.5358333 L17.25,18.1783333 Z M14.875,22 L14.875,18.6666667 L16.4583333,18.6666667 L16.4583333,22 L14.875,22 Z M22,16.1666667 L18.8333333,16.1666667 L18.8333333,14.5 L22,14.5 L22,16.1666667 Z M4.39175,4.64333333 L5.51116667,3.465 L7.75,5.82166667 L6.63058333,7 L4.39175,4.64333333 Z M6.16666667,9.5 L3,9.5 L3,7.83333333 L6.16666667,7.83333333 L6.16666667,9.5 Z M8.54166667,5.33333333 L8.54166667,2 L10.125,2 L10.125,5.33333333 L8.54166667,5.33333333 Z" id="Shape" fill="#4A4A4A" fill-rule="nonzero"></path>
    </g>
</svg>