<?xml version="1.0" encoding="UTF-8"?>
<svg width="23px" height="31px" viewBox="0 0 23 31" version="1.1" xmlns="http://www.w3.org/2000/svg" xmlns:xlink="http://www.w3.org/1999/xlink">
    <!-- Generator: Sketch 52.1 (67048) - http://www.bohemiancoding.com/sketch -->
    <title>ic_s_sikkerhet</title>
    <desc>Created with Sketch.</desc>
    <g id="Page-1" stroke="none" stroke-width="1" fill="none" fill-rule="evenodd" opacity="0.67015439">
        <g id="Hovedskjerm-Copy-37" transform="translate(-14.000000, -1310.000000)" fill="#4A4A4A" fill-rule="nonzero">
            <g id="ic_s_sikkerhet" transform="translate(14.750000, 1310.773438)">
                <path d="M11,3.18 C14.0555556,5.43625 16.566,6.045 19.5555556,6.2 L19.5555556,18.16875 C19.5555556,21.97125 17.4936667,22.9525 11,27.0525 C4.51,22.955 2.44444444,21.97125 2.44444444,18.16875 L2.44444444,6.2 C5.434,6.045 7.94444444,5.43625 11,3.18 Z M11,0 C6.87988889,3.5825 4.29733333,3.75 0,3.75 L0,18.16875 C0,23.9225 3.91477778,25.42375 11,30 C18.0852222,25.42375 22,23.9225 22,18.16875 L22,3.75 C17.7026667,3.75 15.1201111,3.5825 11,0 Z" id="Shape"></path>
            </g>
        </g>
    </g>
</svg>