<?xml version="1.0" encoding="UTF-8"?>
<svg width="24px" height="24px" viewBox="0 0 24 24" version="1.1" xmlns="http://www.w3.org/2000/svg" xmlns:xlink="http://www.w3.org/1999/xlink">
    <!-- Generator: Sketch 53.2 (72643) - https://sketchapp.com -->
    <title>ic_trafikk</title>
    <desc>Created with Sketch.</desc>
    <g id="ic_trafikk" stroke="none" stroke-width="1" fill="none" fill-rule="evenodd">
        <path d="M7.93635646,14.1071002 L7.93635646,12.0664178 L8.83605069,12.0664178 C9.47240218,12.0664178 9.72708707,12.2684453 10.1549288,12.6847446 C10.4810409,13.0010503 11.5437912,14.1071002 11.5437912,14.1071002 L7.93635646,14.1071002 Z M7.21486951,12.0664178 L7.21486951,14.1071002 C6.44215698,14.1071002 4.75676347,14.0363566 3.5165274,13.5982901 C3.95735592,13.1064856 4.37509687,12.6983491 4.60308675,12.4616299 C4.83829149,12.2174283 5.10019125,12.0664178 5.59657428,12.0664178 L7.21486951,12.0664178 Z M17.3156868,15.5770719 C17.3156868,17.1579206 16.4159926,18.1435702 15.0206368,18.1816629 C14.7241057,18.9754884 13.9297486,19.5489202 12.9860436,19.5489202 C12.0452246,19.5489202 11.2523105,18.9788895 10.9543364,18.1884652 L6.36062896,18.1884652 C6.06265485,18.9788895 5.26974069,19.5489202 4.3289217,19.5489202 C3.38449529,19.5489202 2.58941667,18.9748082 2.29360702,18.1796222 C0.98194374,18.1292854 6.35935749e-13,16.9069166 6.35935749e-13,15.2328767 C6.35935749e-13,13.7887538 0.654388664,13.0554685 1.6529266,12.1017896 C1.93863544,11.8283381 2.95593204,10.9821351 3.34120607,10.66787 C2.95376758,10.335919 3.12981039,10.0257353 3.52446375,10.0257353 L9.03662406,10.0257353 C10.2999477,10.0257353 10.8446704,10.4270695 11.3251807,10.888944 L11.389393,10.9508447 C11.6325341,11.182122 12.7162075,12.1963412 13.1130253,12.5670652 C14.1065129,12.7840578 14.4759142,12.8820105 15.2998523,13.1071658 C15.8510683,13.2574961 17.3156868,13.6567896 17.3156868,15.5770719 Z M4.3289217,18.3245107 C4.80654607,18.3245107 5.19470605,17.9585483 5.19470605,17.5082377 C5.19470605,17.0579271 4.80654607,16.6919647 4.3289217,16.6919647 C3.85129734,16.6919647 3.46313736,17.0579271 3.46313736,17.5082377 C3.46313736,17.9585483 3.85129734,18.3245107 4.3289217,18.3245107 Z M12.9867651,18.3245107 C13.4643895,18.3245107 13.8525495,17.9585483 13.8525495,17.5082377 C13.8525495,17.0579271 13.4643895,16.6919647 12.9867651,16.6919647 C12.5091408,16.6919647 12.1209808,17.0579271 12.1209808,17.5082377 C12.1209808,17.9585483 12.5091408,18.3245107 12.9867651,18.3245107 Z M15.0300162,16.8620216 C15.5870041,16.8198475 15.8727129,16.3913042 15.8727129,15.5777521 C15.8727129,14.740392 15.5047546,14.5798584 14.8987055,14.4145631 C14.0495154,14.1826055 12.3879309,13.8057595 12.3879309,13.8057595 C12.3879309,13.8057595 10.755206,12.2602826 10.4529029,11.9929532 C10.0640215,11.6480779 9.80645063,11.3861903 8.92623655,11.3861903 L5.19398456,11.3861903 C4.8707584,11.3848298 4.55763307,11.4807419 4.3123275,11.6786881 C3.62475044,12.234434 3.20268057,12.5568618 2.67960254,13.056829 C1.78207277,13.9145959 1.4429739,14.324773 1.4429739,15.2328767 C1.4429739,16.1498234 1.86504377,16.7776734 2.28783512,16.8552193 C2.57859436,16.0505102 3.37728042,15.4675552 4.3289217,15.4675552 C5.28633489,15.4675552 6.08934986,16.0579927 6.3750587,16.8701843 L10.9406281,16.8701843 C11.226337,16.0579927 12.0293519,15.4675552 12.9867651,15.4675552 C13.9412923,15.4675552 14.7421429,16.0539113 15.0300162,16.8620216 Z M14.6900235,9.7229455 L13.7073408,10.2097701 L12.2096276,7.18655221 L15.6803083,7.65989357 L17.0549896,3.76242682 L18.8965894,7.52281275 L23.2220278,5.3268335 L21.1597547,9.78338304 L24,11.8031121 L20.7861066,13.065036 L21.1102034,17.4781852 L18.9209544,15.7153196 L19.6087569,14.8611585 L19.8315749,15.0405799 L19.6332141,12.3395473 L21.7134132,11.5227644 L19.7820237,10.1493326 L20.8986681,7.73627626 L18.4010199,9.00430583 L17.2197515,6.59225915 L16.417345,8.86722501 L14.1102163,8.5525722 L14.6900235,9.7229455 Z" id="Combined-Shape" fill="#4A4A4A" fill-rule="nonzero"></path>
    </g>
</svg>